<svg width="1426" height="2326" viewBox="0 0 1426 2326" fill="none" xmlns="http://www.w3.org/2000/svg">
<path d="M173.519 688.671L162.235 527.988L220.911 673.325L235.355 825.433L173.519 688.671Z" fill="url(#paint0_linear_250_653)"/>
<path d="M235.83 840.328L221.363 672.248L1037.87 624.127L1023.86 776.668L235.83 840.328Z" fill="url(#paint1_linear_250_653)"/>
<path d="M162.686 528.89L803.615 500.906L1037.87 624.127L221.363 674.228L162.686 528.89Z" fill="url(#paint2_linear_250_653)"/>
<path d="M418.607 960.841L625.329 1395.5L343.23 1640.14L46.2359 1193.13L418.607 960.841Z" fill="url(#paint3_linear_250_653)"/>
<path d="M354.965 949.105L418.607 961.292L407.323 969.417L343.23 959.035L354.965 949.105Z" fill="url(#paint4_linear_250_653)"/>
<path d="M16.4461 1172.08L355.416 949.106L366.7 951.362L24.1192 1184.71L16.4461 1172.08Z" fill="url(#paint5_linear_250_653)"/>
<path d="M26.3223 1177.05L314.343 1617.12L308.926 1617.12L19.5001 1178.1L26.3223 1177.05Z" fill="url(#paint6_linear_250_653)"/>
<path d="M29.0842 1181.1L356.771 957.681L406.871 968.965L226.328 1081.35L46.2359 1193.74L29.0842 1181.1Z" fill="url(#paint7_linear_250_653)"/>
<path d="M316.148 1619.82L29.084 1181.1L46.687 1192.39L337.813 1632.01L316.148 1619.82Z" fill="url(#paint8_linear_250_653)"/>
<path d="M1244.69 1650.52L958.53 1259.19L997.798 948.654L1096.65 939.627L1425.23 1236.17L1347.15 1624.34H1334.06L1406.73 1252.42L1325.94 1274.99L1244.69 1650.52Z" fill="url(#paint9_linear_250_653)"/>
<path d="M1246.95 1647.36L1324.58 1272.73L1415.3 1249.26L1341.28 1625.24L1246.95 1647.36Z" fill="url(#paint10_linear_250_653)"/>
<path d="M229.487 2050.42L589.22 1636.98L958.431 1520.53L607.274 2006.19L229.487 2050.42Z" fill="url(#paint11_linear_250_653)"/>
<path d="M229.487 2049.97L245.285 2048.61L243.479 2094.2L229.487 2089.69V2049.97Z" fill="url(#paint12_linear_250_653)"/>
<path d="M244.833 2080.66L688.97 2309.95V2325.75L229.487 2090.59L244.833 2080.66Z" fill="url(#paint13_linear_250_653)"/>
<path d="M688.97 2309.95L960.688 1832.41L963.396 1847.31L688.97 2326.2V2309.95Z" fill="url(#paint14_linear_250_653)"/>
<path d="M958.431 1799.92L689.422 2277.45V2309.05L958.431 1835.12V1799.92Z" fill="#D9D9D9"/>
<path d="M689.422 2279.15L247.994 2050.76L607.726 2005.62L802.713 2078.74L689.422 2279.15Z" fill="url(#paint15_linear_250_653)"/>
<path d="M797.297 1742.14L958.883 1799.01L802.713 2078.74L607.726 2005.62L797.297 1742.14Z" fill="url(#paint16_linear_250_653)"/>
<path d="M245.736 2050.42L689.422 2277V2309.95L245.736 2078.86V2050.42Z" fill="url(#paint17_linear_250_653)"/>
<path d="M234 219L162.5 172L179.462 44.8529L269.508 29C283.797 74.7412 245.907 199.059 234 219Z" fill="url(#paint18_linear_250_653)"/>
<path d="M162 197V170.5L234.5 217.5C266.5 126 275.191 60.2269 270.5 31.5L174.339 57.1515L176.945 39.9153L258.251 0L1346.5 267.614C1368.18 393.892 1330.17 522.225 1312.1 557L242.094 267.614L162 197Z" fill="url(#paint19_linear_250_653)"/>
<defs>
<linearGradient id="paint0_linear_250_653" x1="535.057" y1="254.013" x2="198.795" y2="825.433" gradientUnits="userSpaceOnUse">
<stop stop-color="#D9D9D9"/>
<stop offset="1" stop-color="#D9D9D9" stop-opacity="0"/>
</linearGradient>
<linearGradient id="paint1_linear_250_653" x1="1037.42" y1="710.788" x2="221.363" y2="748.702" gradientUnits="userSpaceOnUse">
<stop stop-color="#187A4F"/>
<stop offset="0.796151" stop-color="#187A4F" stop-opacity="0"/>
</linearGradient>
<linearGradient id="paint2_linear_250_653" x1="909.685" y1="547.848" x2="196.538" y2="594.337" gradientUnits="userSpaceOnUse">
<stop stop-color="#187A4F"/>
<stop offset="1" stop-color="#187A4F" stop-opacity="0"/>
</linearGradient>
<linearGradient id="paint3_linear_250_653" x1="559.914" y1="1190.22" x2="186.251" y2="1420.41" gradientUnits="userSpaceOnUse">
<stop stop-color="#E3A620"/>
<stop offset="1" stop-color="#E3A620" stop-opacity="0"/>
</linearGradient>
<linearGradient id="paint4_linear_250_653" x1="380.918" y1="949.105" x2="380.918" y2="969.417" gradientUnits="userSpaceOnUse">
<stop stop-color="#E3A620"/>
<stop offset="1" stop-color="#E3A620" stop-opacity="0"/>
</linearGradient>
<linearGradient id="paint5_linear_250_653" x1="157.947" y1="1030.58" x2="222.717" y2="1095.35" gradientUnits="userSpaceOnUse">
<stop stop-color="#E3A620"/>
<stop offset="1" stop-color="#E3A620" stop-opacity="0"/>
</linearGradient>
<linearGradient id="paint6_linear_250_653" x1="191.011" y1="1377.85" x2="144.19" y2="1416.25" gradientUnits="userSpaceOnUse">
<stop stop-color="#E3A620"/>
<stop offset="1" stop-color="#E3A620" stop-opacity="0"/>
</linearGradient>
<linearGradient id="paint7_linear_250_653" x1="217.978" y1="957.681" x2="217.978" y2="1193.74" gradientUnits="userSpaceOnUse">
<stop stop-color="#D9D9D9"/>
<stop offset="1" stop-color="#D9D9D9" stop-opacity="0"/>
</linearGradient>
<linearGradient id="paint8_linear_250_653" x1="183.449" y1="1181.1" x2="183.449" y2="1632.01" gradientUnits="userSpaceOnUse">
<stop stop-color="#D9D9D9"/>
<stop offset="1" stop-color="#D9D9D9" stop-opacity="0"/>
</linearGradient>
<linearGradient id="paint9_linear_250_653" x1="1191.88" y1="939.627" x2="1191.88" y2="1650.52" gradientUnits="userSpaceOnUse">
<stop stop-color="#031883"/>
<stop offset="1" stop-color="#031883" stop-opacity="0"/>
</linearGradient>
<linearGradient id="paint10_linear_250_653" x1="1474.88" y1="1046.15" x2="1253.72" y2="1647.36" gradientUnits="userSpaceOnUse">
<stop stop-color="#D9D9D9"/>
<stop offset="1" stop-color="#D9D9D9" stop-opacity="0"/>
</linearGradient>
<linearGradient id="paint11_linear_250_653" x1="593.959" y1="1520.53" x2="593.959" y2="2050.42" gradientUnits="userSpaceOnUse">
<stop stop-color="#C81E19"/>
<stop offset="1" stop-color="#C81E19" stop-opacity="0"/>
</linearGradient>
<linearGradient id="paint12_linear_250_653" x1="237.386" y1="2048.61" x2="237.386" y2="2094.2" gradientUnits="userSpaceOnUse">
<stop stop-color="#C81E19"/>
<stop offset="1" stop-color="#C81E19" stop-opacity="0"/>
</linearGradient>
<linearGradient id="paint13_linear_250_653" x1="459.229" y1="2080.66" x2="459.229" y2="2325.75" gradientUnits="userSpaceOnUse">
<stop stop-color="#C81E19"/>
<stop offset="1" stop-color="#C81E19" stop-opacity="0"/>
</linearGradient>
<linearGradient id="paint14_linear_250_653" x1="826.183" y1="1832.41" x2="826.183" y2="2326.2" gradientUnits="userSpaceOnUse">
<stop stop-color="#C81E19"/>
<stop offset="1" stop-color="#C81E19" stop-opacity="0"/>
</linearGradient>
<linearGradient id="paint15_linear_250_653" x1="951.21" y1="1809.85" x2="201.503" y2="2191.24" gradientUnits="userSpaceOnUse">
<stop stop-color="#FFE4D1"/>
<stop offset="1" stop-color="#FFE4D1" stop-opacity="0"/>
</linearGradient>
<linearGradient id="paint16_linear_250_653" x1="951.21" y1="1809.85" x2="201.503" y2="2191.24" gradientUnits="userSpaceOnUse">
<stop stop-color="#FFE4D1"/>
<stop offset="1" stop-color="#FFE4D1" stop-opacity="0"/>
</linearGradient>
<linearGradient id="paint17_linear_250_653" x1="467.579" y1="2050.42" x2="467.579" y2="2309.95" gradientUnits="userSpaceOnUse">
<stop stop-color="#EAEAEA"/>
<stop offset="1" stop-color="#EAEAEA" stop-opacity="0"/>
</linearGradient>
<linearGradient id="paint18_linear_250_653" x1="240.5" y1="144" x2="162.592" y2="125.74" gradientUnits="userSpaceOnUse">
<stop stop-color="#B7B7B7"/>
<stop offset="1" stop-color="#D9D9D9" stop-opacity="0"/>
</linearGradient>
<linearGradient id="paint19_linear_250_653" x1="878.029" y1="0" x2="878.029" y2="587.844" gradientUnits="userSpaceOnUse">
<stop stop-color="#662A74"/>
<stop offset="1" stop-color="#662A74" stop-opacity="0"/>
</linearGradient>
</defs>
</svg>
