<svg width="1100" height="1036" viewBox="0 0 1100 1036" fill="none" xmlns="http://www.w3.org/2000/svg">
<g clip-path="url(#clip0_464_179)">
<rect x="690.532" y="137.448" width="407" height="854" transform="rotate(6.60934 690.532 137.448)" fill="white"/>
<rect x="-543.849" y="-34.7729" width="1246" height="1001" transform="rotate(6.60934 -543.849 -34.7729)" fill="url(#paint0_linear_464_179)"/>
<path d="M782.623 181.481L788.663 196.042L790.816 196.292L792.765 179.471L715.645 170.535L713.695 187.356L715.849 187.605L725.059 174.811L743.044 176.895L734.263 252.677L726.218 254.399L725.996 256.32L763.072 260.616L763.294 258.695L755.857 255.179L764.638 179.397L782.623 181.481ZM800.697 254.063C807.309 262.674 816.758 267.662 829.039 269.085C841.262 270.501 851.602 267.807 860.066 260.942C868.464 254.129 873.441 244.265 874.932 231.402C876.422 218.539 873.839 207.74 867.17 199.122C860.442 190.498 851.051 185.516 838.886 184.107C826.721 182.697 816.381 185.392 807.918 192.257C799.396 199.115 794.412 209.037 792.922 221.9C791.431 234.763 794.021 245.503 800.697 254.063ZM823.969 194.235C828.048 188.042 832.915 185.244 838.619 185.905C850.958 187.334 855.556 201.611 852.407 228.792C850.781 242.819 847.965 252.875 843.943 259.074C839.922 265.273 835.062 268.014 829.3 267.346C823.538 266.678 819.44 262.841 816.892 255.822C814.336 248.86 813.842 238.362 815.454 224.451C817.065 210.541 819.889 200.427 823.969 194.235ZM940.207 198.501L950.497 202.348L909.899 235.572L914.236 198.146L922.28 196.424L922.503 194.503L885.427 190.207L885.204 192.128L892.7 195.651L884.081 270.036L875.978 271.752L875.756 273.672L912.832 277.968L913.054 276.048L905.617 272.531L909.44 239.53L915.066 234.755L935.124 280.551L963.062 283.789L963.285 281.868L956.169 278.625L931.393 222.136L954.804 202.847L964.478 201.314L964.701 199.393L940.43 196.581L940.207 198.501ZM1038.05 209.838L1047.99 213.644L1020.94 249.086L1003.17 208.451L1011.22 206.729L1011.44 204.808L973.781 200.445L973.558 202.366L980.414 205.814L1000.15 250.276L996.357 283.046L988.312 284.768L988.09 286.688L1025.05 290.971L1025.27 289.05L1017.95 285.548L1021.75 252.779L1051.36 214.035L1060.81 212.475L1061.03 210.554L1038.27 207.917L1038.05 209.838ZM1063.55 284.519C1070.16 293.131 1079.61 298.119 1091.89 299.542C1104.11 300.958 1114.45 298.263 1122.92 291.398C1131.32 284.585 1136.29 274.722 1137.78 261.858C1139.27 248.995 1136.69 238.197 1130.02 229.579C1123.29 220.954 1113.9 215.973 1101.74 214.563C1089.57 213.154 1079.23 215.849 1070.77 222.713C1062.25 229.571 1057.26 239.493 1055.77 252.356C1054.28 265.219 1056.87 275.96 1063.55 284.519ZM1086.82 224.691C1090.9 218.498 1095.77 215.7 1101.47 216.361C1113.81 217.791 1118.41 232.067 1115.26 259.248C1113.63 273.276 1110.82 283.331 1106.79 289.53C1102.77 295.73 1097.91 298.47 1092.15 297.802C1086.39 297.134 1082.29 293.298 1079.74 286.278C1077.19 279.316 1076.69 268.819 1078.3 254.908C1079.92 240.997 1082.74 230.884 1086.82 224.691Z" fill="#3659AA"/>
<path d="M705.506 847.028L711.546 861.59L713.7 861.839L715.649 845.018L638.528 836.082L636.579 852.903L638.733 853.153L647.942 840.358L665.927 842.442L657.147 918.224L649.102 919.946L648.879 921.867L685.955 926.163L686.178 924.242L678.74 920.726L687.521 844.944L705.506 847.028ZM723.581 919.61C730.192 928.222 739.642 933.21 751.923 934.633C764.146 936.049 774.486 933.354 782.949 926.489C791.348 919.676 796.325 909.813 797.815 896.949C799.306 884.086 796.723 873.288 790.053 864.67C783.325 856.045 773.934 851.064 761.769 849.654C749.605 848.245 739.265 850.94 730.801 857.804C722.28 864.662 717.296 874.584 715.805 887.447C714.315 900.31 716.905 911.051 723.581 919.61ZM746.852 859.782C750.932 853.589 755.798 850.791 761.502 851.452C773.841 852.882 778.44 867.158 775.29 894.34C773.665 908.367 770.848 918.422 766.827 924.621C762.805 930.821 757.946 933.561 752.184 932.893C746.421 932.226 742.324 928.389 739.775 921.369C737.22 914.407 736.725 903.91 738.337 889.999C739.949 876.088 742.772 865.975 746.852 859.782ZM863.091 864.049L873.38 867.895L832.783 901.119L837.119 863.694L845.164 861.971L845.386 860.051L808.31 855.755L808.088 857.675L815.583 861.198L806.964 935.584L798.862 937.299L798.639 939.22L835.715 943.516L835.938 941.595L828.5 938.079L832.324 905.077L837.95 900.302L858.007 946.099L885.946 949.336L886.168 947.415L879.053 944.172L854.277 887.683L877.687 868.394L887.362 866.861L887.584 864.94L863.313 862.128L863.091 864.049ZM960.932 875.385L970.873 879.192L943.82 914.634L926.055 873.999L934.1 872.276L934.322 870.356L896.664 865.992L896.442 867.913L903.297 871.362L923.038 915.824L919.241 948.593L911.196 950.315L910.973 952.236L947.933 956.518L948.156 954.598L940.834 951.095L944.631 918.326L974.248 879.583L983.69 878.022L983.913 876.102L961.155 873.465L960.932 875.385ZM986.432 950.067C993.043 958.678 1002.49 963.666 1014.77 965.089C1027 966.505 1037.34 963.81 1045.8 956.946C1054.2 950.133 1059.18 940.269 1060.67 927.406C1062.16 914.543 1059.57 903.744 1052.9 895.126C1046.18 886.501 1036.78 881.52 1024.62 880.111C1012.46 878.701 1002.12 881.396 993.652 888.26C985.13 895.118 980.147 905.04 978.656 917.903C977.166 930.767 979.755 941.507 986.432 950.067ZM1009.7 890.238C1013.78 884.046 1018.65 881.247 1024.35 881.908C1036.69 883.338 1041.29 897.614 1038.14 924.796C1036.52 938.823 1033.7 948.878 1029.68 955.078C1025.66 961.277 1020.8 964.017 1015.03 963.35C1009.27 962.682 1005.17 958.845 1002.63 951.825C1000.07 944.864 999.576 934.366 1001.19 920.455C1002.8 906.544 1005.62 896.431 1009.7 890.238Z" fill="#3659AA"/>
<path d="M697.965 310.897L705.457 313.948L696.615 390.254L688.631 391.452L688.463 392.907L731.941 397.945C742.127 399.125 750.563 398.097 757.257 394.803C763.943 391.567 767.7 386.634 768.475 379.941C769.103 374.528 767.533 369.745 763.826 365.599C760.118 361.454 754.755 358.355 747.738 356.303C754.114 355.744 759.273 353.982 763.221 350.96C767.17 347.937 769.46 343.955 770.04 338.95C770.775 332.606 768.516 327.153 763.309 322.716C758.101 318.278 750.867 315.552 741.612 314.48L698.134 309.442L697.965 310.897ZM722.521 355.033L732.94 356.24C743.649 357.481 748.269 364.446 746.792 377.192C745.315 389.939 739.225 395.663 728.516 394.422L718.097 393.215L722.521 355.033ZM737.465 317.185C746.137 318.19 749.75 324.684 748.361 336.674C746.971 348.664 741.97 354.16 733.297 353.155L722.879 351.948L727.046 315.978L737.465 317.185ZM808.703 404.893L801.498 401.404L810.117 327.019L817.929 325.269L818.151 323.349L781.715 319.127L781.493 321.048L788.93 324.564L780.311 398.949L772.267 400.671L772.044 402.592L808.48 406.814L808.703 404.893ZM845.709 369.07L869.456 371.822L871.553 382.741L873.706 382.991L876.485 359.011L874.331 358.761L869.813 368.737L846.066 365.986L850.207 330.248L879.775 333.674L885.698 348.222L887.968 348.485L889.917 331.664L821.294 323.713L821.126 325.168L828.617 328.218L819.776 404.524L811.792 405.723L811.623 407.178L881.468 415.271L883.404 398.566L881.134 398.303L872.047 411.053L841.257 407.485L845.709 369.07ZM896.504 334.374L903.942 337.89L895.269 412.741L887.225 414.463L887.056 415.918L905.623 418.07L905.792 416.614L898.354 413.098L906.804 340.168L954.166 423.694L959.753 424.342L968.952 344.951L976.997 343.229L977.165 341.774L958.54 339.615L958.371 341.071L965.867 344.593L960 395.231L926.353 335.886L896.727 332.453L896.504 334.374ZM979.62 344.004L987.058 347.521L978.385 422.371L970.34 424.094L970.172 425.549L988.739 427.7L988.908 426.245L981.47 422.729L989.92 349.799L1037.28 433.325L1042.87 433.972L1052.07 354.581L1060.11 352.859L1060.28 351.404L1041.66 349.246L1041.49 350.701L1048.98 354.224L1043.12 404.862L1009.47 345.516L979.843 342.084L979.62 344.004ZM1143.96 443.739L1136.64 440.236L1111.44 357.332L1105.39 356.631L1061.55 431.536L1052.52 433.144L1052.3 435.065L1075.17 437.715L1075.39 435.794L1064.87 431.921L1076.5 412.033L1107.93 415.675L1114.46 437.667L1106.42 439.389L1106.2 441.31L1143.74 445.66L1143.96 443.739ZM1107.01 412.383L1078.14 409.038L1096.58 377.14L1107.01 412.383ZM1184.02 370.343L1192.07 368.62L1192.29 366.7L1155.27 362.41L1155.05 364.331L1162.49 367.847L1153.75 443.222L1145.77 444.42L1145.6 445.875L1211.25 453.483L1213.19 436.778L1210.92 436.515L1201.83 449.265L1175.23 446.183L1184.02 370.343ZM1251.51 416.09L1275.26 418.842L1277.35 429.761L1279.51 430.011L1282.29 406.031L1280.13 405.781L1275.61 415.757L1251.87 413.005L1256.01 377.268L1285.58 380.694L1291.5 395.242L1293.77 395.505L1295.72 378.684L1227.09 370.733L1226.93 372.188L1234.42 375.238L1225.58 451.544L1217.59 452.743L1217.42 454.198L1287.27 462.291L1289.2 445.586L1286.93 445.323L1277.85 458.073L1247.06 454.505L1251.51 416.09Z" fill="#3659AA"/>
<path d="M667.464 574.137L674.955 577.187L666.114 653.493L658.13 654.692L657.961 656.147L701.44 661.184C711.626 662.365 720.062 661.337 726.755 658.042C733.442 654.806 737.198 649.873 737.974 643.18C738.601 637.767 737.032 632.984 733.324 628.839C729.616 624.693 724.254 621.594 717.236 619.542C723.613 618.983 728.772 617.222 732.72 614.199C736.668 611.176 738.958 607.195 739.538 602.189C740.273 595.845 738.015 590.392 732.807 585.955C727.6 581.518 720.366 578.792 711.111 577.719L667.632 572.682L667.464 574.137ZM692.02 618.272L702.438 619.479C713.148 620.72 717.768 627.685 716.291 640.432C714.814 653.178 708.724 658.902 698.014 657.661L687.596 656.454L692.02 618.272ZM706.964 580.424C715.636 581.429 719.248 587.923 717.859 599.913C716.47 611.903 711.468 617.399 702.796 616.394L692.377 615.187L696.545 579.217L706.964 580.424ZM778.201 668.132L770.996 664.643L779.615 590.258L787.427 588.509L787.65 586.588L751.214 582.366L750.991 584.287L758.429 587.803L749.81 662.188L741.765 663.91L741.543 665.831L777.979 670.053L778.201 668.132ZM815.207 632.31L838.954 635.061L841.051 645.981L843.205 646.23L845.983 622.25L843.83 622L839.312 631.976L815.564 629.225L819.705 593.487L849.273 596.913L855.197 611.461L857.467 611.724L859.416 594.903L790.793 586.952L790.624 588.407L798.116 591.458L789.274 667.764L781.29 668.962L781.122 670.417L850.967 678.51L852.902 661.805L850.633 661.542L841.546 674.292L810.756 670.725L815.207 632.31ZM866.003 597.613L873.441 601.129L864.768 675.98L856.723 677.702L856.555 679.157L875.122 681.309L875.29 679.854L867.853 676.338L876.303 603.408L923.664 686.933L929.252 687.581L938.451 608.19L946.495 606.468L946.664 605.013L928.039 602.855L927.87 604.31L935.366 607.833L929.499 658.47L895.852 599.125L866.226 595.692L866.003 597.613ZM949.119 607.244L956.556 610.76L947.884 685.611L939.839 687.333L939.67 688.788L958.238 690.939L958.406 689.484L950.968 685.968L959.419 613.038L1006.78 696.564L1012.37 697.211L1021.57 617.821L1029.61 616.098L1029.78 614.643L1011.15 612.485L1010.99 613.94L1018.48 617.463L1012.61 668.101L978.967 608.756L949.341 605.323L949.119 607.244ZM1113.46 706.978L1106.14 703.475L1080.94 620.571L1074.89 619.87L1031.05 694.776L1022.02 696.383L1021.8 698.304L1044.67 700.954L1044.89 699.034L1034.37 695.16L1046 675.272L1077.43 678.914L1083.96 700.906L1075.92 702.628L1075.69 704.549L1113.24 708.899L1113.46 706.978ZM1076.51 675.622L1047.64 672.277L1066.08 640.379L1076.51 675.622ZM1153.52 633.582L1161.56 631.86L1161.79 629.939L1124.77 625.65L1124.55 627.57L1131.98 631.087L1123.25 706.461L1115.27 707.66L1115.1 709.115L1180.75 716.722L1182.69 700.017L1180.42 699.754L1171.33 712.504L1144.73 709.422L1153.52 633.582ZM1221.01 679.329L1244.76 682.081L1246.85 693L1249.01 693.25L1251.78 669.27L1249.63 669.02L1245.11 678.996L1221.37 676.245L1225.51 640.507L1255.07 643.933L1261 658.481L1263.27 658.744L1265.22 641.923L1196.59 633.972L1196.42 635.427L1203.92 638.478L1195.07 714.783L1187.09 715.982L1186.92 717.437L1256.77 725.53L1258.7 708.825L1256.43 708.562L1247.35 721.312L1216.56 717.744L1221.01 679.329Z" fill="#3659AA"/>
<path d="M733.105 531.97L736.045 506.593L733.775 506.33L726.33 518.149L688.207 513.732C694.971 510.328 700.368 507.532 704.455 505.351C708.535 503.228 715.251 499.229 724.603 493.352C733.955 487.475 739.188 479.47 740.355 469.4C741.144 462.59 739.138 456.99 734.39 452.665C729.576 448.391 722.808 445.719 714.135 444.715C705.463 443.71 698.135 444.335 692.275 446.547C686.357 448.751 683.071 452.676 682.417 458.322C681.661 464.841 685.523 469.182 691.984 469.93C698.445 470.679 703.179 466.98 704.063 459.356L705.439 447.482C707.384 446.469 709.431 446.116 711.468 446.352C718.162 447.128 721.051 453.243 719.891 463.254C719.736 464.593 719.655 465.291 719.655 465.291C717.888 476.471 711.762 487.086 701.336 497.144C696.832 501.4 688.296 508.375 675.744 517.95L674.901 525.226L733.105 531.97ZM752.228 523.214C757.799 531.646 765.735 536.459 776.153 537.666C786.572 538.873 795.457 536.009 802.808 529.075C810.152 522.199 814.605 512.274 816.095 499.411C817.586 486.548 815.527 475.81 809.963 467.32C804.399 458.83 796.405 454.011 785.986 452.804C775.568 451.597 766.741 454.467 759.384 461.46C752.026 468.452 747.624 478.442 746.134 491.305C744.643 504.168 746.651 514.841 752.228 523.214ZM776.356 535.92C767.574 534.843 764.721 520.769 767.857 493.704C770.993 466.639 776.988 453.59 785.835 454.615C794.676 455.698 797.528 469.772 794.392 496.837C791.256 523.902 785.261 536.952 776.356 535.92ZM877.102 548.655L880.043 523.278L877.773 523.015L870.328 534.834L832.204 530.417C838.969 527.013 844.366 524.217 848.452 522.036C852.532 519.913 859.248 515.914 868.6 510.037C877.952 504.16 883.186 496.155 884.352 486.085C885.141 479.275 883.136 473.675 878.387 469.35C873.574 465.076 866.805 462.404 858.133 461.399C849.46 460.395 842.133 461.02 836.273 463.231C830.355 465.436 827.068 469.361 826.414 475.007C825.659 481.526 829.521 485.866 835.982 486.615C842.442 487.364 847.177 483.665 848.06 476.04L849.436 464.167C851.382 463.154 853.428 462.801 855.466 463.037C862.159 463.812 865.049 469.928 863.889 479.939C863.734 481.278 863.653 481.976 863.653 481.976C861.885 493.156 855.76 503.771 845.333 513.829C840.829 518.085 832.294 525.059 819.741 534.635L818.898 541.911L877.102 548.655ZM942.058 556.181L944.999 530.804L942.729 530.541L935.284 542.36L897.16 537.943C903.925 534.539 909.322 531.743 913.408 529.562C917.488 527.44 924.204 523.44 933.556 517.563C942.908 511.686 948.142 503.681 949.308 493.612C950.097 486.802 948.092 481.202 943.343 476.876C938.53 472.602 931.761 469.931 923.089 468.926C914.416 467.921 907.089 468.546 901.229 470.758C895.311 472.962 892.024 476.888 891.37 482.533C890.615 489.052 894.477 493.393 900.938 494.141C907.398 494.89 912.133 491.192 913.016 483.567L914.392 471.693C916.338 470.68 918.384 470.327 920.422 470.563C927.115 471.339 930.005 477.454 928.845 487.465C928.69 488.804 928.609 489.503 928.609 489.503C926.841 500.682 920.716 511.298 910.289 521.356C905.785 525.612 897.25 532.586 884.697 542.162L883.854 549.437L942.058 556.181ZM1025.11 484.404L1031.15 498.966L1033.3 499.215L1035.25 482.394L958.132 473.458L956.183 490.279L958.337 490.529L967.546 477.734L985.531 479.818L976.75 555.6L968.706 557.322L968.483 559.243L1005.56 563.539L1005.78 561.618L998.344 558.102L1007.13 482.32L1025.11 484.404ZM1043.18 556.986C1049.8 565.597 1059.25 570.585 1071.53 572.008C1083.75 573.425 1094.09 570.73 1102.55 563.865C1110.95 557.052 1115.93 547.188 1117.42 534.325C1118.91 521.462 1116.33 510.663 1109.66 502.046C1102.93 493.421 1093.54 488.44 1081.37 487.03C1069.21 485.621 1058.87 488.316 1050.41 495.18C1041.88 502.038 1036.9 511.96 1035.41 524.823C1033.92 537.686 1036.51 548.427 1043.18 556.986ZM1066.46 497.158C1070.54 490.965 1075.4 488.167 1081.11 488.828C1093.45 490.257 1098.04 504.534 1094.89 531.715C1093.27 545.743 1090.45 555.798 1086.43 561.997C1082.41 568.197 1077.55 570.937 1071.79 570.269C1066.03 569.601 1061.93 565.764 1059.38 558.745C1056.82 551.783 1056.33 541.286 1057.94 527.375C1059.55 513.464 1062.38 503.351 1066.46 497.158ZM1182.69 501.425L1192.98 505.271L1152.39 538.495L1156.72 501.07L1164.77 499.347L1164.99 497.427L1127.91 493.131L1127.69 495.051L1135.19 498.574L1126.57 572.959L1118.47 574.675L1118.24 576.596L1155.32 580.892L1155.54 578.971L1148.1 575.455L1151.93 542.453L1157.55 537.678L1177.61 583.475L1205.55 586.712L1205.77 584.791L1198.66 581.548L1173.88 525.059L1197.29 505.77L1206.97 504.237L1207.19 502.316L1182.92 499.504L1182.69 501.425ZM1280.54 512.761L1290.48 516.567L1263.42 552.01L1245.66 511.375L1253.7 509.652L1253.93 507.732L1216.27 503.368L1216.05 505.289L1222.9 508.738L1242.64 553.2L1238.84 585.969L1230.8 587.691L1230.58 589.612L1267.54 593.894L1267.76 591.973L1260.44 588.471L1264.24 555.702L1293.85 516.959L1303.29 515.398L1303.52 513.478L1280.76 510.841L1280.54 512.761ZM1342.67 521.2C1352.22 522.306 1356.18 529.902 1354.55 543.929C1352.92 558.014 1347.33 564.504 1337.78 563.398L1331.09 562.622L1330.97 563.67L1332.77 565.943L1339.46 566.719C1349.65 567.899 1358.11 566.638 1364.85 562.994C1371.58 559.351 1375.35 553.83 1376.2 546.438C1377.06 539.046 1374.65 532.81 1368.93 527.723C1363.21 522.636 1355.26 519.473 1345.07 518.293L1305.26 513.68L1305.09 515.135L1312.59 518.185L1303.86 593.502L1295.81 595.224L1295.59 597.145L1337.5 602.001L1337.72 600.08L1325.39 595.997L1334.18 520.215L1342.67 521.2Z" fill="#3659AA"/>
<path d="M672.102 1058.45L675.043 1033.07L672.773 1032.81L665.328 1044.63L627.204 1040.21C633.969 1036.81 639.366 1034.01 643.452 1031.83C647.532 1029.71 654.248 1025.71 663.6 1019.83C672.952 1013.95 678.186 1005.95 679.352 995.878C680.141 989.068 678.136 983.468 673.387 979.143C668.574 974.869 661.805 972.197 653.133 971.192C644.46 970.187 637.133 970.813 631.273 973.024C625.355 975.229 622.068 979.154 621.414 984.8C620.659 991.319 624.521 995.659 630.982 996.408C637.442 997.156 642.177 993.458 643.06 985.833L644.436 973.959C646.382 972.946 648.428 972.593 650.466 972.83C657.159 973.605 660.049 979.721 658.889 989.732C658.734 991.07 658.653 991.769 658.653 991.769C656.885 1002.95 650.76 1013.56 640.333 1023.62C635.829 1027.88 627.294 1034.85 614.741 1044.43L613.898 1051.7L672.102 1058.45ZM691.226 1049.69C696.796 1058.12 704.732 1062.94 715.151 1064.14C725.57 1065.35 734.454 1062.49 741.805 1055.55C749.149 1048.68 753.602 1038.75 755.093 1025.89C756.583 1013.03 754.524 1002.29 748.961 993.798C743.397 985.308 735.402 980.489 724.984 979.281C714.565 978.074 705.739 980.945 698.381 987.937C691.023 994.93 686.622 1004.92 685.131 1017.78C683.641 1030.65 685.648 1041.32 691.226 1049.69ZM715.353 1062.4C706.571 1061.32 703.719 1047.25 706.855 1020.18C709.991 993.116 715.986 980.067 724.833 981.093C733.673 982.176 736.525 996.25 733.389 1023.31C730.253 1050.38 724.259 1063.43 715.353 1062.4ZM816.1 1075.13L819.04 1049.76L816.77 1049.49L809.325 1061.31L771.202 1056.89C777.967 1053.49 783.363 1050.69 787.45 1048.51C791.53 1046.39 798.246 1042.39 807.598 1036.51C816.95 1030.64 822.183 1022.63 823.35 1012.56C824.139 1005.75 822.133 1000.15 817.385 995.827C812.571 991.554 805.803 988.882 797.13 987.877C788.458 986.872 781.13 987.498 775.27 989.709C769.352 991.914 766.066 995.839 765.412 1001.48C764.656 1008 768.518 1012.34 774.979 1013.09C781.44 1013.84 786.174 1010.14 787.058 1002.52L788.434 990.644C790.38 989.631 792.426 989.278 794.463 989.514C801.157 990.29 804.046 996.405 802.886 1006.42C802.731 1007.76 802.65 1008.45 802.65 1008.45C800.883 1019.63 794.757 1030.25 784.331 1040.31C779.827 1044.56 771.291 1051.54 758.739 1061.11L757.896 1068.39L816.1 1075.13ZM881.056 1082.66L883.996 1057.28L881.727 1057.02L874.281 1068.84L836.158 1064.42C842.923 1061.02 848.319 1058.22 852.406 1056.04C856.486 1053.92 863.202 1049.92 872.554 1044.04C881.906 1038.16 887.139 1030.16 888.306 1020.09C889.095 1013.28 887.09 1007.68 882.341 1003.35C877.527 999.08 870.759 996.408 862.086 995.403C853.414 994.398 846.086 995.024 840.226 997.235C834.308 999.44 831.022 1003.37 830.368 1009.01C829.613 1015.53 833.475 1019.87 839.935 1020.62C846.396 1021.37 851.13 1017.67 852.014 1010.04L853.39 998.171C855.336 997.158 857.382 996.805 859.419 997.041C866.113 997.816 869.002 1003.93 867.842 1013.94C867.687 1015.28 867.606 1015.98 867.606 1015.98C865.839 1027.16 859.713 1037.78 849.287 1047.83C844.783 1052.09 836.248 1059.06 823.695 1068.64L822.852 1075.91L881.056 1082.66ZM964.108 1010.88L970.148 1025.44L972.301 1025.69L974.25 1008.87L897.13 999.936L895.181 1016.76L897.334 1017.01L906.544 1004.21L924.529 1006.3L915.748 1082.08L907.703 1083.8L907.481 1085.72L944.557 1090.02L944.78 1088.1L937.342 1084.58L946.123 1008.8L964.108 1010.88ZM982.182 1083.46C988.794 1092.08 998.243 1097.06 1010.52 1098.49C1022.75 1099.9 1033.09 1097.21 1041.55 1090.34C1049.95 1083.53 1054.93 1073.67 1056.42 1060.8C1057.91 1047.94 1055.32 1037.14 1048.65 1028.52C1041.93 1019.9 1032.54 1014.92 1020.37 1013.51C1008.21 1012.1 997.866 1014.79 989.403 1021.66C980.881 1028.52 975.897 1038.44 974.407 1051.3C972.916 1064.16 975.506 1074.9 982.182 1083.46ZM1005.45 1023.64C1009.53 1017.44 1014.4 1014.64 1020.1 1015.31C1032.44 1016.74 1037.04 1031.01 1033.89 1058.19C1032.27 1072.22 1029.45 1082.28 1025.43 1088.47C1021.41 1094.67 1016.55 1097.41 1010.79 1096.75C1005.02 1096.08 1000.93 1092.24 998.377 1085.22C995.821 1078.26 995.327 1067.76 996.939 1053.85C998.551 1039.94 1001.37 1029.83 1005.45 1023.64ZM1121.69 1027.9L1131.98 1031.75L1091.38 1064.97L1095.72 1027.55L1103.77 1025.82L1103.99 1023.9L1066.91 1019.61L1066.69 1021.53L1074.18 1025.05L1065.57 1099.44L1057.46 1101.15L1057.24 1103.07L1094.32 1107.37L1094.54 1105.45L1087.1 1101.93L1090.93 1068.93L1096.55 1064.16L1116.61 1109.95L1144.55 1113.19L1144.77 1111.27L1137.65 1108.03L1112.88 1051.54L1136.29 1032.25L1145.96 1030.71L1146.19 1028.79L1121.91 1025.98L1121.69 1027.9ZM1219.53 1039.24L1229.47 1043.05L1202.42 1078.49L1184.66 1037.85L1192.7 1036.13L1192.92 1034.21L1155.27 1029.85L1155.04 1031.77L1161.9 1035.22L1181.64 1079.68L1177.84 1112.45L1169.8 1114.17L1169.57 1116.09L1206.53 1120.37L1206.76 1118.45L1199.44 1114.95L1203.23 1082.18L1232.85 1043.44L1242.29 1041.88L1242.51 1039.96L1219.76 1037.32L1219.53 1039.24ZM1281.67 1047.68C1291.22 1048.78 1295.17 1056.38 1293.55 1070.41C1291.92 1084.49 1286.33 1090.98 1276.78 1089.88L1270.09 1089.1L1269.97 1090.15L1271.77 1092.42L1278.46 1093.2C1288.65 1094.38 1297.11 1093.12 1303.84 1089.47C1310.58 1085.83 1314.34 1080.31 1315.2 1072.92C1316.06 1065.52 1313.65 1059.29 1307.93 1054.2C1302.21 1049.11 1294.26 1045.95 1284.07 1044.77L1244.26 1040.16L1244.09 1041.61L1251.58 1044.66L1242.86 1119.98L1234.81 1121.7L1234.59 1123.62L1276.5 1128.48L1276.72 1126.56L1264.39 1122.47L1273.17 1046.69L1281.67 1047.68Z" fill="#3659AA"/>
<path d="M702.719 794.216L705.659 768.839L703.389 768.575L695.944 780.395L657.821 775.977C664.585 772.573 669.982 769.777 674.069 767.597C678.149 765.474 684.865 761.474 694.217 755.598C703.569 749.721 708.802 741.715 709.969 731.646C710.758 724.836 708.752 719.236 704.004 714.911C699.19 710.637 692.422 707.965 683.749 706.96C675.077 705.955 667.749 706.581 661.889 708.792C655.971 710.997 652.685 714.922 652.031 720.568C651.275 727.087 655.137 731.427 661.598 732.176C668.059 732.924 672.793 729.226 673.677 721.601L675.053 709.728C676.999 708.714 679.045 708.362 681.082 708.598C687.776 709.373 690.665 715.489 689.505 725.5C689.35 726.838 689.269 727.537 689.269 727.537C687.502 738.716 681.376 749.332 670.95 759.39C666.446 763.646 657.91 770.62 645.358 780.196L644.515 787.472L702.719 794.216ZM721.842 785.46C727.413 793.892 735.349 798.704 745.767 799.911C756.186 801.119 765.071 798.255 772.422 791.321C779.766 784.444 784.219 774.52 785.709 761.657C787.2 748.794 785.141 738.056 779.577 729.566C774.013 721.076 766.019 716.257 755.6 715.049C745.182 713.842 736.355 716.713 728.998 723.705C721.64 730.698 717.238 740.687 715.748 753.55C714.257 766.414 716.265 777.087 721.842 785.46ZM745.97 798.165C737.188 797.089 734.335 783.015 737.471 755.95C740.607 728.885 746.602 715.835 755.449 716.861C764.29 717.944 767.142 732.018 764.006 759.083C760.87 786.148 754.875 799.197 745.97 798.165ZM846.716 810.9L849.657 785.523L847.387 785.26L839.942 797.08L801.818 792.662C808.583 789.258 813.98 786.462 818.066 784.281C822.146 782.159 828.862 778.159 838.214 772.282C847.566 766.406 852.8 758.4 853.966 748.331C854.755 741.521 852.75 735.921 848.001 731.596C843.188 727.322 836.419 724.65 827.747 723.645C819.074 722.64 811.747 723.266 805.887 725.477C799.969 727.682 796.682 731.607 796.028 737.253C795.273 743.772 799.135 748.112 805.596 748.861C812.056 749.609 816.791 745.911 817.674 738.286L819.05 726.412C820.996 725.399 823.042 725.046 825.08 725.282C831.773 726.058 834.663 732.173 833.503 742.185C833.348 743.523 833.267 744.222 833.267 744.222C831.499 755.401 825.374 766.017 814.947 776.075C810.443 780.331 801.908 787.305 789.355 796.881L788.512 804.156L846.716 810.9ZM911.673 818.427L914.613 793.05L912.343 792.787L904.898 804.606L866.774 800.189C873.539 796.785 878.936 793.989 883.022 791.808C887.103 789.685 893.818 785.686 903.17 779.809C912.522 773.932 917.756 765.927 918.922 755.857C919.711 749.047 917.706 743.447 912.957 739.122C908.144 734.848 901.375 732.176 892.703 731.171C884.03 730.167 876.703 730.792 870.843 733.003C864.925 735.208 861.638 739.133 860.984 744.779C860.229 751.298 864.091 755.638 870.552 756.387C877.012 757.136 881.747 753.437 882.63 745.812L884.006 733.939C885.952 732.926 887.998 732.573 890.036 732.809C896.729 733.584 899.619 739.7 898.459 749.711C898.304 751.05 898.223 751.748 898.223 751.748C896.455 762.928 890.33 773.543 879.903 783.601C875.399 787.857 866.864 794.831 854.311 804.407L853.468 811.683L911.673 818.427ZM994.724 746.65L1000.76 761.211L1002.92 761.461L1004.87 744.64L927.746 735.704L925.797 752.525L927.951 752.774L937.16 739.98L955.145 742.064L946.364 817.846L938.32 819.568L938.097 821.489L975.173 825.785L975.396 823.864L967.958 820.348L976.739 744.566L994.724 746.65ZM1012.8 819.232C1019.41 827.843 1028.86 832.831 1041.14 834.254C1053.36 835.67 1063.7 832.975 1072.17 826.111C1080.57 819.298 1085.54 809.434 1087.03 796.571C1088.52 783.708 1085.94 772.909 1079.27 764.291C1072.54 755.666 1063.15 750.685 1050.99 749.276C1038.82 747.866 1028.48 750.561 1020.02 757.426C1011.5 764.283 1006.51 774.205 1005.02 787.069C1003.53 799.932 1006.12 810.672 1012.8 819.232ZM1036.07 759.403C1040.15 753.211 1045.02 750.412 1050.72 751.073C1063.06 752.503 1067.66 766.78 1064.51 793.961C1062.88 807.988 1060.07 818.043 1056.04 824.243C1052.02 830.442 1047.16 833.182 1041.4 832.515C1035.64 831.847 1031.54 828.01 1028.99 820.99C1026.44 814.029 1025.94 803.531 1027.56 789.62C1029.17 775.709 1031.99 765.596 1036.07 759.403ZM1152.31 763.67L1162.6 767.517L1122 800.741L1126.34 763.315L1134.38 761.593L1134.6 759.672L1097.53 755.376L1097.31 757.297L1104.8 760.82L1096.18 835.205L1088.08 836.92L1087.86 838.841L1124.93 843.137L1125.16 841.216L1117.72 837.7L1121.54 804.698L1127.17 799.924L1147.23 845.72L1175.16 848.957L1175.39 847.037L1168.27 843.794L1143.49 787.305L1166.91 768.016L1176.58 766.482L1176.8 764.562L1152.53 761.749L1152.31 763.67ZM1250.15 775.007L1260.09 778.813L1233.04 814.255L1215.27 773.62L1223.32 771.898L1223.54 769.977L1185.88 765.614L1185.66 767.534L1192.52 770.983L1212.26 815.445L1208.46 848.214L1200.41 849.937L1200.19 851.857L1237.15 856.14L1237.37 854.219L1230.05 850.716L1233.85 817.947L1263.47 779.204L1272.91 777.644L1273.13 775.723L1250.37 773.086L1250.15 775.007ZM1312.29 783.445C1321.83 784.551 1325.79 792.147 1324.16 806.174C1322.53 820.26 1316.94 826.75 1307.4 825.644L1300.7 824.868L1300.58 825.916L1302.38 828.189L1309.08 828.964C1319.26 830.145 1327.73 828.884 1334.46 825.24C1341.19 821.596 1344.96 816.075 1345.82 808.683C1346.67 801.291 1344.27 795.055 1338.55 789.968C1332.82 784.881 1324.87 781.719 1314.69 780.538L1274.88 775.925L1274.71 777.381L1282.2 780.431L1273.47 855.747L1265.43 857.47L1265.21 859.39L1307.11 864.246L1307.34 862.325L1295.01 858.243L1303.79 782.461L1312.29 783.445Z" fill="#3659AA"/>
<path d="M-451.421 570.667L-421.616 313.443L-328.324 334.152L-356.997 581.608L-451.421 570.667Z" fill="#44539B"/>
<path d="M-256.061 593.303L-220.975 290.495L-120.654 279.022L-158.381 604.621L-256.061 593.303Z" fill="#44539B"/>
<path d="M-54.1893 616.694L-30.7986 414.822L62.1161 438.787L40.2345 627.634L-54.1893 616.694Z" fill="#44539B"/>
<path d="M137.914 638.953L175.641 313.353L264.783 369.878L232.338 649.893L137.914 638.953Z" fill="#44539B"/>
<path d="M336.53 661.966L368.975 381.95L466.04 370.099L430.954 672.907L336.53 661.966Z" fill="#44539B"/>
<path d="M535.146 684.979L558.536 483.108L656.118 438.319L626.313 695.543L535.146 684.979Z" fill="#44539B"/>
<rect x="-538.207" y="550.768" width="1173" height="304" transform="rotate(6.60934 -538.207 550.768)" fill="url(#paint1_linear_464_179)"/>
<path d="M-524.619 433.497L-521.223 404.193L-435.575 433.915L-440.102 472.987L-524.619 433.497Z" fill="#1E356A"/>
<path d="M-224.37 319.8L-328.324 334.152L-421.616 313.443L-220.975 290.496L-224.37 319.8Z" fill="#1E356A"/>
<path d="M-142.159 464.613L-138.009 428.798L-36.8349 466.918L-40.6076 499.478L-142.159 464.613Z" fill="#1E356A"/>
<path d="M162.437 427.313L62.1161 438.787L-30.7986 414.822L166.587 391.497L162.437 427.313Z" fill="#1E356A"/>
<path d="M368.975 381.951L264.783 369.878L175.641 313.353L466.794 363.588L466.04 370.1L368.975 381.951Z" fill="#1E356A"/>
<path d="M454.344 471.035L450.572 503.595L558.536 483.108L656.118 438.32L656.872 431.808L454.344 471.035Z" fill="#1E356A"/>
</g>
<rect x="-469.706" y="3.01221" width="1575" height="854" transform="rotate(6.60934 -469.706 3.01221)" fill="url(#paint2_linear_464_179)"/>
<defs>
<linearGradient id="paint0_linear_464_179" x1="79.1506" y1="-34.7729" x2="79.1506" y2="966.227" gradientUnits="userSpaceOnUse">
<stop stop-color="#D9D9D9"/>
<stop offset="1" stop-color="#FFFEFE"/>
</linearGradient>
<linearGradient id="paint1_linear_464_179" x1="48.293" y1="550.768" x2="48.293" y2="854.768" gradientUnits="userSpaceOnUse">
<stop stop-color="#3659AA"/>
<stop offset="1" stop-color="#1D3265"/>
</linearGradient>
<linearGradient id="paint2_linear_464_179" x1="1105.29" y1="430.012" x2="-469.706" y2="430.012" gradientUnits="userSpaceOnUse">
<stop stop-opacity="0"/>
<stop offset="1" stop-opacity="0.69"/>
</linearGradient>
<clipPath id="clip0_464_179">
<rect width="1575" height="854" fill="white" transform="translate(-469.706 3.01221) rotate(6.60934)"/>
</clipPath>
</defs>
</svg>
