<svg width="1261" height="2147" viewBox="0 0 1261 2147" fill="none" xmlns="http://www.w3.org/2000/svg">
<path d="M39 1322.49C67.2689 1486.17 386.689 1940.36 542.866 2147H644.948C506.745 1842.67 183.398 1470.53 39 1322.49Z" fill="url(#paint0_linear_474_370)"/>
<path d="M1260.95 1323C1232.68 1486.68 913.259 1940.87 757.082 2147.51H655C793.203 1843.18 1116.55 1471.03 1260.95 1323Z" fill="url(#paint1_linear_474_370)"/>
<g clip-path="url(#clip0_474_370)">
<path d="M888.288 598.314C998.332 488.27 998.332 309.855 888.288 199.811C778.245 89.7676 599.829 89.7676 489.786 199.811C379.742 309.855 379.742 488.27 489.786 598.314C599.829 708.357 778.245 708.357 888.288 598.314Z" fill="url(#paint2_linear_474_370)"/>
<path d="M489.786 1122.5C599.829 1232.55 778.245 1232.55 888.288 1122.5C998.332 1012.46 998.332 834.043 888.288 723.999C778.245 613.956 599.829 613.956 489.786 723.999C379.742 834.043 379.742 1012.46 489.786 1122.5Z" fill="url(#paint3_linear_474_370)"/>
<path d="M597.753 468.469C487.71 358.425 309.294 358.425 199.251 468.469C89.2071 578.512 89.2071 756.928 199.251 866.971C309.294 977.015 487.71 977.015 597.753 866.971C707.797 756.928 707.797 578.512 597.753 468.469Z" fill="url(#paint4_linear_474_370)"/>
<path d="M961.74 949.175C1117.37 949.175 1243.52 823.016 1243.52 667.391C1243.52 511.766 1117.37 385.607 961.74 385.607C806.115 385.607 679.956 511.766 679.956 667.391C679.956 823.016 806.115 949.175 961.74 949.175Z" fill="url(#paint5_linear_474_370)"/>
</g>
<defs>
<linearGradient id="paint0_linear_474_370" x1="341.974" y1="1322.49" x2="341.974" y2="2147" gradientUnits="userSpaceOnUse">
<stop stop-color="#329926"/>
<stop offset="0.494792" stop-color="#57FF43" stop-opacity="0.505208"/>
<stop offset="1" stop-color="#329926" stop-opacity="0"/>
</linearGradient>
<linearGradient id="paint1_linear_474_370" x1="957.974" y1="1323" x2="957.974" y2="2147.51" gradientUnits="userSpaceOnUse">
<stop stop-color="#329926"/>
<stop offset="0.494792" stop-color="#4EFA3A" stop-opacity="0.505208"/>
<stop offset="1" stop-color="#329926" stop-opacity="0"/>
</linearGradient>
<linearGradient id="paint2_linear_474_370" x1="523.819" y1="632.348" x2="917.681" y2="229.205" gradientUnits="userSpaceOnUse">
<stop offset="0.00520833" stop-color="white"/>
<stop offset="0.328125" stop-color="#80A3F2"/>
<stop offset="0.671875" stop-color="#D9504C"/>
<stop offset="0.9999" stop-color="#8E529F"/>
</linearGradient>
<linearGradient id="paint3_linear_474_370" x1="455.752" y1="758.033" x2="858.895" y2="1151.89" gradientUnits="userSpaceOnUse">
<stop offset="0.00520833" stop-color="white"/>
<stop offset="0.328125" stop-color="#80A3F2"/>
<stop offset="0.671875" stop-color="#D9504C"/>
<stop offset="0.9999" stop-color="#8E529F"/>
</linearGradient>
<linearGradient id="paint4_linear_474_370" x1="631.786" y1="832.937" x2="228.644" y2="439.076" gradientUnits="userSpaceOnUse">
<stop offset="0.00520833" stop-color="white"/>
<stop offset="0.328125" stop-color="#80A3F2"/>
<stop offset="0.671875" stop-color="#D9504C"/>
<stop offset="0.9999" stop-color="#8E529F"/>
</linearGradient>
<linearGradient id="paint5_linear_474_370" x1="679.956" y1="715.522" x2="1243.52" y2="708.959" gradientUnits="userSpaceOnUse">
<stop offset="0.00520833" stop-color="white"/>
<stop offset="0.328125" stop-color="#80A3F2"/>
<stop offset="0.671875" stop-color="#D9504C"/>
<stop offset="0.9999" stop-color="#8E529F"/>
</linearGradient>
<clipPath id="clip0_474_370">
<rect width="1244" height="1322" fill="white"/>
</clipPath>
</defs>
</svg>
