<svg width="1137" height="680" viewBox="0 0 1137 680" fill="none" xmlns="http://www.w3.org/2000/svg">
<g clip-path="url(#clip0_248_650)">
<rect y="0.0639648" width="531" height="672" fill="url(#paint0_linear_248_650)"/>
<path d="M302.688 19.5288L309.279 -12.1118H72.4141L66.2617 19.5288L118.996 41.062L13.9668 557.859L-47.9961 583.787L-54.5879 618.064H182.277L188.43 586.423L136.135 564.89L175.686 368.015L245.998 305.613L365.969 618.064H531.203L537.795 586.423L484.621 565.769L349.709 221.238L553.176 41.062L614.26 19.5288L621.291 -12.1118H431.447L424.416 19.5288L491.652 41.062L187.551 307.371L241.604 43.6987L302.688 19.5288Z" fill="black"/>
<path d="M302.688 19.5288L321.084 66.0215L346.141 56.107L351.637 29.7265L302.688 19.5288ZM309.279 -12.1118L358.228 -1.9141L370.77 -62.1118H309.279V-12.1118ZM72.4141 -12.1118V-62.1118H31.1998L23.3333 -21.6553L72.4141 -12.1118ZM66.2617 19.5288L17.1809 9.98533L9.343 50.2948L47.3601 65.8184L66.2617 19.5288ZM118.996 41.062L167.994 51.02L176.244 10.4303L137.898 -5.22762L118.996 41.062ZM13.9668 557.859L33.2672 603.984L57.692 593.763L62.9651 567.817L13.9668 557.859ZM-47.9961 583.787L-67.2965 537.662L-92.0326 548.012L-97.0964 574.344L-47.9961 583.787ZM-54.5879 618.064L-103.688 608.622L-115.119 668.064H-54.5879V618.064ZM182.277 618.064V668.064H223.492L231.358 627.607L182.277 618.064ZM188.43 586.423L237.51 595.967L245.325 555.778L207.467 540.189L188.43 586.423ZM136.135 564.89L87.1142 555.042L78.9992 595.437L117.097 611.124L136.135 564.89ZM175.686 368.015L142.496 330.619L129.965 341.741L126.665 358.167L175.686 368.015ZM245.998 305.613L292.675 287.69L266.8 220.3L212.809 268.217L245.998 305.613ZM365.969 618.064L319.291 635.987L331.608 668.064H365.969V618.064ZM531.203 618.064V668.064H571.86L580.152 628.262L531.203 618.064ZM537.795 586.423L586.744 596.621L595.383 555.153L555.899 539.816L537.795 586.423ZM484.621 565.769L438.063 584L446.064 604.432L466.517 612.377L484.621 565.769ZM349.709 221.238L316.561 183.805L290.419 206.954L303.151 239.469L349.709 221.238ZM553.176 41.062L536.553 -6.09377L527.341 -2.84637L520.028 3.62916L553.176 41.062ZM614.26 19.5288L630.883 66.6846L657.05 57.4602L663.069 30.3753L614.26 19.5288ZM621.291 -12.1118L670.1 -1.26529L683.622 -62.1118H621.291V-12.1118ZM431.447 -12.1118V-62.1118H391.339L382.638 -22.9583L431.447 -12.1118ZM424.416 19.5288L375.607 8.68229L365.708 53.2283L409.166 67.1464L424.416 19.5288ZM491.652 41.062L524.593 78.6774L591.122 20.4166L506.902 -6.55558L491.652 41.062ZM187.551 307.371L138.569 297.329L108.737 442.851L220.491 344.986L187.551 307.371ZM241.604 43.6987L223.207 -2.79398L198.054 7.15851L192.622 33.6575L241.604 43.6987ZM351.637 29.7265L358.228 -1.9141L260.33 -22.3095L253.738 9.33109L351.637 29.7265ZM309.279 -62.1118H72.4141V37.8882H309.279V-62.1118ZM23.3333 -21.6553L17.1809 9.98533L115.342 29.0723L121.495 -2.56833L23.3333 -21.6553ZM47.3601 65.8184L100.094 87.3516L137.898 -5.22762L85.1633 -26.7608L47.3601 65.8184ZM69.9977 31.104L-35.0316 547.901L62.9651 567.817L167.994 51.02L69.9977 31.104ZM-5.33363 511.734L-67.2965 537.662L-28.6957 629.911L33.2672 603.984L-5.33363 511.734ZM-97.0964 574.344L-103.688 608.622L-5.48757 627.506L1.10423 593.229L-97.0964 574.344ZM-54.5879 668.064H182.277V568.064H-54.5879V668.064ZM231.358 627.607L237.51 595.967L139.349 576.88L133.197 608.521L231.358 627.607ZM207.467 540.189L155.172 518.656L117.097 611.124L169.392 632.657L207.467 540.189ZM185.155 574.738L224.706 377.863L126.665 358.167L87.1142 555.042L185.155 574.738ZM208.875 405.411L279.187 343.009L212.809 268.217L142.496 330.619L208.875 405.411ZM199.321 323.535L319.291 635.987L412.646 600.141L292.675 287.69L199.321 323.535ZM365.969 668.064H531.203V568.064H365.969V668.064ZM580.152 628.262L586.744 596.621L488.846 576.226L482.254 607.866L580.152 628.262ZM555.899 539.816L502.725 519.162L466.517 612.377L519.691 633.031L555.899 539.816ZM531.179 547.538L396.267 203.007L303.151 239.469L438.063 584L531.179 547.538ZM382.857 258.671L586.324 78.4949L520.028 3.62916L316.561 183.805L382.857 258.671ZM569.799 88.2178L630.883 66.6846L597.637 -27.627L536.553 -6.09377L569.799 88.2178ZM663.069 30.3753L670.1 -1.26529L572.482 -22.9583L565.45 8.68229L663.069 30.3753ZM621.291 -62.1118H431.447V37.8882H621.291V-62.1118ZM382.638 -22.9583L375.607 8.68229L473.225 30.3753L480.257 -1.26529L382.638 -22.9583ZM409.166 67.1464L476.402 88.6796L506.902 -6.55558L439.666 -28.0888L409.166 67.1464ZM458.712 3.44665L154.61 269.755L220.491 344.986L524.593 78.6774L458.712 3.44665ZM236.532 317.412L290.585 53.7399L192.622 33.6575L138.569 297.329L236.532 317.412ZM260 90.1915L321.084 66.0215L284.291 -26.9639L223.207 -2.79398L260 90.1915Z" fill="black"/>
</g>
<g clip-path="url(#clip1_248_650)">
<rect x="382.273" y="0.0639648" width="531" height="672" fill="url(#paint1_linear_248_650)"/>
<path d="M690.857 586.423L684.705 618.064H929.48L935.633 586.423L885.535 567.527L738.758 280.564L971.668 38.4253L1034.95 19.5288L1041.1 -12.1118H866.638L860.047 19.5288L920.691 38.4253L723.377 249.802L617.908 38.4253L678.552 19.5288L684.705 -12.1118H439.929L433.777 19.5288L483.875 38.4253L620.984 310.447L374.011 567.527L311.17 586.423L305.896 618.064H480.359L485.633 586.423L425.427 567.527L637.683 341.648L750.183 567.527L690.857 586.423Z" fill="black"/>
<path d="M690.857 586.423L675.682 538.782L647.435 547.779L641.776 576.88L690.857 586.423ZM684.705 618.064L635.624 608.521L624.046 668.064H684.705V618.064ZM929.48 618.064V668.064H970.694L978.561 627.607L929.48 618.064ZM935.633 586.423L984.713 595.967L992.769 554.536L953.279 539.641L935.633 586.423ZM885.535 567.527L841.02 590.296L849.816 607.492L867.889 614.31L885.535 567.527ZM738.758 280.564L702.722 245.902L678.009 271.594L694.243 303.333L738.758 280.564ZM971.668 38.4253L957.361 -9.48429L944.754 -5.71953L935.632 3.76332L971.668 38.4253ZM1034.95 19.5288L1049.26 67.4384L1078.25 58.7793L1084.03 29.0723L1034.95 19.5288ZM1041.1 -12.1118L1090.18 -2.56833L1101.76 -62.1118H1041.1V-12.1118ZM866.638 -12.1118V-62.1118H825.982L817.689 -22.3095L866.638 -12.1118ZM860.047 19.5288L811.098 9.33109L801.841 53.7633L845.172 67.2651L860.047 19.5288ZM920.691 38.4253L957.241 72.5439L1011.55 14.3652L935.565 -9.311L920.691 38.4253ZM723.377 249.802L678.637 272.126L710.788 336.562L759.927 283.921L723.377 249.802ZM617.908 38.4253L603.034 -9.311L546.933 8.16959L573.168 60.7488L617.908 38.4253ZM678.552 19.5288L693.427 67.2651L721.934 58.3824L727.633 29.0723L678.552 19.5288ZM684.705 -12.1118L733.786 -2.56833L745.363 -62.1118H684.705V-12.1118ZM439.929 -12.1118V-62.1118H398.715L390.849 -21.6553L439.929 -12.1118ZM433.777 19.5288L384.696 9.98533L376.64 51.4159L416.131 66.3115L433.777 19.5288ZM483.875 38.4253L528.524 15.9205L519.753 -1.48027L501.521 -8.35735L483.875 38.4253ZM620.984 310.447L657.041 345.086L681.568 319.556L665.633 287.942L620.984 310.447ZM374.011 567.527L388.41 615.409L400.977 611.63L410.069 602.166L374.011 567.527ZM311.17 586.423L296.772 538.541L266.967 547.504L261.85 578.203L311.17 586.423ZM305.896 618.064L256.577 609.844L246.873 668.064H305.896V618.064ZM480.359 618.064V668.064H522.715L529.679 626.284L480.359 618.064ZM485.633 586.423L534.952 594.643L542.102 551.742L500.606 538.718L485.633 586.423ZM425.427 567.527L388.99 533.287L334.415 591.366L410.454 615.232L425.427 567.527ZM637.683 341.648L682.439 319.357L650.424 255.075L601.246 307.408L637.683 341.648ZM750.183 567.527L765.358 615.169L820.951 597.461L794.939 545.236L750.183 567.527ZM641.776 576.88L635.624 608.521L733.786 627.607L739.938 595.967L641.776 576.88ZM684.705 668.064H929.48V568.064H684.705V668.064ZM978.561 627.607L984.713 595.967L886.552 576.88L880.399 608.521L978.561 627.607ZM953.279 539.641L903.181 520.744L867.889 614.31L917.987 633.206L953.279 539.641ZM930.05 544.758L783.273 257.795L694.243 303.333L841.02 590.296L930.05 544.758ZM774.793 315.226L1007.7 73.0873L935.632 3.76332L702.722 245.902L774.793 315.226ZM985.974 86.3349L1049.26 67.4384L1020.64 -28.3808L957.361 -9.48429L985.974 86.3349ZM1084.03 29.0723L1090.18 -2.56833L992.021 -21.6553L985.868 9.98533L1084.03 29.0723ZM1041.1 -62.1118H866.638V37.8882H1041.1V-62.1118ZM817.689 -22.3095L811.098 9.33109L908.996 29.7265L915.587 -1.9141L817.689 -22.3095ZM845.172 67.2651L905.817 86.1616L935.565 -9.311L874.921 -28.2075L845.172 67.2651ZM884.141 4.30667L686.826 215.684L759.927 283.921L957.241 72.5439L884.141 4.30667ZM768.117 227.479L662.648 16.1018L573.168 60.7488L678.637 272.126L768.117 227.479ZM632.782 86.1616L693.427 67.2651L663.678 -28.2075L603.034 -9.311L632.782 86.1616ZM727.633 29.0723L733.786 -2.56833L635.624 -21.6553L629.472 9.98533L727.633 29.0723ZM684.705 -62.1118H439.929V37.8882H684.705V-62.1118ZM390.849 -21.6553L384.696 9.98533L482.858 29.0723L489.01 -2.56833L390.849 -21.6553ZM416.131 66.3115L466.229 85.2079L501.521 -8.35735L451.423 -27.2538L416.131 66.3115ZM439.226 60.9301L576.335 332.952L665.633 287.942L528.524 15.9205L439.226 60.9301ZM584.927 275.807L337.954 532.887L410.069 602.166L657.041 345.086L584.927 275.807ZM359.613 519.645L296.772 538.541L325.568 634.305L388.41 615.409L359.613 519.645ZM261.85 578.203L256.577 609.844L355.216 626.284L360.489 594.643L261.85 578.203ZM305.896 668.064H480.359V568.064H305.896V668.064ZM529.679 626.284L534.952 594.643L436.313 578.203L431.039 609.844L529.679 626.284ZM500.606 538.718L440.401 519.821L410.454 615.232L470.659 634.129L500.606 538.718ZM461.865 601.766L674.12 375.887L601.246 307.408L388.99 533.287L461.865 601.766ZM592.927 363.939L705.427 589.818L794.939 545.236L682.439 319.357L592.927 363.939ZM735.009 519.885L675.682 538.782L706.032 634.065L765.358 615.169L735.009 519.885Z" fill="black"/>
</g>
<g clip-path="url(#clip2_248_650)">
<rect x="764" width="373" height="672" fill="url(#paint2_linear_248_650)"/>
<path d="M832.275 -11.1758L827.001 17.8281L880.175 34.9668L773.828 558.795L711.865 584.723L705.273 619H942.138L948.291 587.359L895.117 565.826L943.017 335.553H1015.97L1106.93 619H1269.53L1275.24 587.359L1222.07 566.705L1174.17 412.896C1159.23 365.436 1141.21 335.992 1120.12 324.566C1168.02 315.338 1208.01 296.441 1239.65 267.877C1270.85 239.752 1291.06 204.596 1299.41 162.848C1310.4 110.113 1298.1 67.9258 1262.94 36.2852C1227.78 4.64453 1176.37 -11.1758 1108.69 -11.1758H832.275ZM1086.28 30.5723C1153.52 30.5723 1186.91 75.3965 1169.34 161.969C1151.76 248.541 1100.34 293.365 1033.1 293.365H950.048L1004.1 30.5723H1086.28Z" fill="black"/>
<path d="M832.275 -11.1758V-61.1758H790.546L783.081 -20.1201L832.275 -11.1758ZM827.001 17.8281L777.808 8.88385L769.972 51.9798L811.663 65.4173L827.001 17.8281ZM880.175 34.9668L929.176 44.9149L938.072 1.09473L895.514 -12.6223L880.175 34.9668ZM773.828 558.795L793.128 604.92L817.559 594.697L822.828 568.743L773.828 558.795ZM711.865 584.723L692.564 538.598L667.828 548.948L662.764 575.28L711.865 584.723ZM705.273 619L656.173 609.558L644.741 669H705.273V619ZM942.138 619V669H983.352L991.219 628.543L942.138 619ZM948.291 587.359L997.371 596.903L1005.23 556.474L967.058 541.015L948.291 587.359ZM895.117 565.826L846.165 555.643L837.665 596.505L876.349 612.17L895.117 565.826ZM943.017 335.553V285.553H902.348L894.065 325.37L943.017 335.553ZM1015.97 335.553L1063.57 320.274L1052.43 285.553H1015.97V335.553ZM1106.93 619L1059.32 634.279L1070.47 669H1106.93V619ZM1269.53 619V669H1311.31L1318.74 627.884L1269.53 619ZM1275.24 587.359L1324.45 596.244L1331.77 555.677L1293.35 540.752L1275.24 587.359ZM1222.07 566.705L1174.33 581.572L1181.5 604.585L1203.97 613.313L1222.07 566.705ZM1174.17 412.896L1221.91 398.029L1221.89 397.956L1221.86 397.882L1174.17 412.896ZM1120.12 324.566L1110.66 275.469L973.338 301.925L1096.3 368.531L1120.12 324.566ZM1239.65 267.877L1206.17 230.738L1206.16 230.751L1206.14 230.764L1239.65 267.877ZM1299.41 162.848L1250.46 152.65L1250.42 152.846L1250.38 153.042L1299.41 162.848ZM950.048 293.365L901.074 283.292L888.717 343.365H950.048V293.365ZM1004.1 30.5723V-19.4277H963.339L955.126 20.4989L1004.1 30.5723ZM783.081 -20.1201L777.808 8.88385L876.195 26.7724L881.468 -2.23151L783.081 -20.1201ZM811.663 65.4173L864.837 82.5559L895.514 -12.6223L842.34 -29.761L811.663 65.4173ZM831.175 25.0187L724.827 548.847L822.828 568.743L929.176 44.9149L831.175 25.0187ZM754.527 512.67L692.564 538.598L731.165 630.847L793.128 604.92L754.527 512.67ZM662.764 575.28L656.173 609.558L754.373 628.442L760.965 594.165L662.764 575.28ZM705.273 669H942.138V569H705.273V669ZM991.219 628.543L997.371 596.903L899.21 577.816L893.057 609.457L991.219 628.543ZM967.058 541.015L913.884 519.482L876.349 612.17L929.523 633.704L967.058 541.015ZM944.069 576.009L991.969 345.736L894.065 325.37L846.165 555.643L944.069 576.009ZM943.017 385.553H1015.97V285.553H943.017V385.553ZM968.358 350.832L1059.32 634.279L1154.54 603.721L1063.57 320.274L968.358 350.832ZM1106.93 669H1269.53V569H1106.93V669ZM1318.74 627.884L1324.45 596.244L1226.04 578.475L1220.33 610.116L1318.74 627.884ZM1293.35 540.752L1240.17 520.098L1203.97 613.313L1257.14 633.967L1293.35 540.752ZM1269.81 551.838L1221.91 398.029L1126.43 427.764L1174.33 581.572L1269.81 551.838ZM1221.86 397.882C1213.66 371.815 1203.94 348.473 1192.1 329.12C1180.39 309.99 1164.89 291.954 1143.93 280.602L1096.3 368.531C1096.28 368.517 1097.31 369.074 1099.24 371.084C1101.18 373.119 1103.77 376.364 1106.8 381.317C1112.98 391.407 1119.74 406.517 1126.48 427.911L1221.86 397.882ZM1129.58 373.664C1185.04 362.978 1233.76 340.556 1273.15 304.99L1206.14 230.764C1182.26 252.327 1151 267.698 1110.66 275.469L1129.58 373.664ZM1273.13 305.016C1312.25 269.745 1337.97 225.029 1348.44 172.653L1250.38 153.042C1244.16 184.163 1229.44 209.759 1206.17 230.738L1273.13 305.016ZM1348.36 173.045C1362.41 105.596 1346.7 44.4058 1296.39 -0.879551L1229.49 73.4499C1249.49 91.4458 1258.39 114.63 1250.46 152.65L1348.36 173.045ZM1296.39 -0.879551C1248.77 -43.7378 1183.44 -61.1758 1108.69 -61.1758V38.8242C1169.29 38.8242 1206.8 53.0268 1229.49 73.4499L1296.39 -0.879551ZM1108.69 -61.1758H832.275V38.8242H1108.69V-61.1758ZM1086.28 80.5723C1108.71 80.5723 1115.31 87.4577 1117.9 91.3727C1122.04 97.6362 1127.88 114.853 1120.34 152.019L1218.34 171.918C1228.37 122.513 1226.3 74.0308 1201.33 36.2392C1174.8 -3.90104 1131.08 -19.4277 1086.28 -19.4277V80.5723ZM1120.34 152.019C1113.06 187.87 1099.73 210.431 1085.61 223.684C1072.06 236.411 1054.9 243.365 1033.1 243.365V343.365C1078.55 343.365 1120.71 327.907 1154.07 296.579C1186.87 265.777 1208.04 222.64 1218.34 171.918L1120.34 152.019ZM1033.1 243.365H950.048V343.365H1033.1V243.365ZM999.023 303.439L1053.08 40.6457L955.126 20.4989L901.074 283.292L999.023 303.439ZM1004.1 80.5723H1086.28V-19.4277H1004.1V80.5723Z" fill="black"/>
</g>
<defs>
<linearGradient id="paint0_linear_248_650" x1="265.5" y1="0.0639648" x2="265.5" y2="672.064" gradientUnits="userSpaceOnUse">
<stop stop-color="#DB2820"/>
<stop offset="1"/>
</linearGradient>
<linearGradient id="paint1_linear_248_650" x1="647.773" y1="0.0639648" x2="647.773" y2="672.064" gradientUnits="userSpaceOnUse">
<stop stop-color="#6F2B82"/>
<stop offset="1"/>
</linearGradient>
<linearGradient id="paint2_linear_248_650" x1="950.5" y1="0" x2="950.5" y2="672" gradientUnits="userSpaceOnUse">
<stop stop-color="#3659AA"/>
<stop offset="1"/>
</linearGradient>
<clipPath id="clip0_248_650">
<rect width="372.453" height="679.936" fill="white" transform="translate(0 0.0639648)"/>
</clipPath>
<clipPath id="clip1_248_650">
<rect width="372.453" height="679.936" fill="white" transform="translate(382.273 0.0639648)"/>
</clipPath>
<clipPath id="clip2_248_650">
<rect width="372.453" height="679.936" fill="white" transform="translate(764.547 0.0639648)"/>
</clipPath>
</defs>
</svg>
