<svg width="1439" height="1833" viewBox="0 0 1439 1833" fill="none" xmlns="http://www.w3.org/2000/svg">
<mask id="mask0_451_177" style="mask-type:alpha" maskUnits="userSpaceOnUse" x="0" y="0" width="1440" height="1833">
<rect width="1440" height="1833" fill="#D9D9D9"/>
</mask>
<g mask="url(#mask0_451_177)">
<path d="M-1288.5 451C-1312.83 451 -1325 438.167 -1325 412.5C-1325 405.167 -1323.67 387.5 -1321 359.5C-1317.33 318.5 -1315.5 290.333 -1315.5 275C-1315.5 267 -1317.33 260.833 -1321 256.5C-1324.67 251.833 -1329.5 249.5 -1335.5 249.5C-1340.17 249.5 -1346.17 251.333 -1353.5 255C-1404.5 280.333 -1467 299.833 -1541 313.5C-1515 300.833 -1486.67 284.167 -1456 263.5C-1425 242.5 -1395.83 220.333 -1368.5 197C-1340.5 173.333 -1317 150.167 -1298 127.5C-1279 104.5 -1267.17 84.5 -1262.5 67.5C-1261.17 63.5 -1260.5 59.3333 -1260.5 55C-1260.5 46.6666 -1263.5 39.5 -1269.5 33.5C-1275.17 27.1666 -1284 21 -1296 15C-1273 16.3333 -1252.67 19.8333 -1235 25.5C-1217 31.1667 -1204 37.8333 -1196 45.5C-1192.33 48.5 -1187.33 58.3333 -1181 75C-1174.33 91.3333 -1171 101.833 -1171 106.5C-1171.67 107.5 -1174.5 110.333 -1179.5 115C-1184.5 119.667 -1189.17 124.833 -1193.5 130.5C-1213.17 156.833 -1248.17 187.167 -1298.5 221.5C-1287.17 216.833 -1278.83 214.5 -1273.5 214.5C-1269.17 214.5 -1260 218.167 -1246 225.5C-1231.67 232.5 -1224.5 237 -1224.5 239C-1224.5 240 -1225.33 242.333 -1227 246C-1228.67 249.333 -1230.17 253.5 -1231.5 258.5C-1234.17 266.5 -1236 274.167 -1237 281.5C-1238 288.5 -1238.5 296.833 -1238.5 306.5C-1238.5 316.833 -1237.33 331.333 -1235 350C-1234.67 355.333 -1234.17 361.167 -1233.5 367.5C-1232.83 373.833 -1232.5 379.667 -1232.5 385C-1232.5 404.333 -1238 420.167 -1249 432.5C-1259.67 444.833 -1272.83 451 -1288.5 451ZM-607 77C-614 77 -619.5 75.3333 -623.5 72C-627.167 68.6667 -630.5 65 -633.5 61C-636.167 56.6667 -638 53.6667 -639 52C-647.667 39.3333 -657 28.1666 -667 18.5C-676.667 8.50002 -685.667 1.99999 -694 -1.00001C-691 -1.33334 -686.5 -1.50001 -680.5 -1.50001C-661.167 -1.50001 -644.167 0.999988 -629.5 6.00002C-614.833 10.6667 -603.667 17 -596 25C-588 33 -584 41.6666 -584 51C-584 58.6666 -586.167 65 -590.5 70C-594.833 74.6666 -600.333 77 -607 77ZM-780 447.5C-811 447.5 -829.5 424 -835.5 377C-839.5 348.333 -844 320.667 -849 294C-862.667 299 -876.5 304.667 -890.5 311C-904.167 317.333 -912.333 321.167 -915 322.5C-924.667 326.833 -933.667 331.5 -942 336.5C-950 340.833 -955 343 -957 343C-963 343 -973.667 339.167 -989 331.5C-1004 323.833 -1013.17 318.167 -1016.5 314.5C-1023.5 305.833 -1030 294.333 -1036 280C-1041.67 265.333 -1044.83 253.833 -1045.5 245.5C-1034.83 259.5 -1018.67 266.5 -997 266.5C-986.667 266.5 -967.667 264 -940 259C-912 254 -885.167 248.5 -859.5 242.5C-862.833 224.833 -867.5 204.833 -873.5 182.5C-879.5 184.167 -884.833 186.5 -889.5 189.5C-894.167 191.833 -899 194.5 -904 197.5C-909 200.167 -912.5 202 -914.5 203C-923.167 208.333 -928.833 211 -931.5 211C-937.5 211 -948.333 208.833 -964 204.5C-979.333 200.167 -988.333 196.333 -991 193C-998.667 184.333 -1004.83 174 -1009.5 162C-1014.17 149.667 -1016.83 137.667 -1017.5 126C-1014.17 131 -1008.67 135.5 -1001 139.5C-993 143.167 -983.167 145 -971.5 145C-947.167 145 -919.333 141.333 -888 134L-902.5 94C-908.5 78.6667 -916.833 68 -927.5 62C-938.167 55.6667 -951.667 52.8333 -968 53.5C-953 46.1666 -938.167 40 -923.5 35C-908.833 30 -897.667 27.5 -890 27.5C-878 27.5 -863.167 30.5 -845.5 36.5C-827.833 42.1666 -817 47.1666 -813 51.5C-812.333 52.1667 -812 56.5 -812 64.5C-812 79.8333 -811.333 92.1667 -810 101.5L-808.5 112C-796.833 108.333 -788.667 105.5 -784 103.5C-775.667 100.167 -769.167 96.333 -764.5 92C-759.833 87.3333 -757.167 83 -756.5 79L-698.5 112.5C-686.833 119.167 -681 127 -681 136C-681 141 -682.5 145.167 -685.5 148.5C-688.5 151.833 -692.667 153.667 -698 154L-712 154.5C-734.333 155.5 -747 156.167 -750 156.5C-770.667 157.833 -787.667 159.667 -801 162C-796.333 184.667 -792.667 201.667 -790 213L-786.5 225.5C-780.5 224.167 -776 223 -773 222C-737 213.667 -715.333 208 -708 205C-691.333 199 -682.167 192 -680.5 184L-613 221C-608.333 223.333 -604.833 226.333 -602.5 230C-599.833 233.333 -598.5 237.667 -598.5 243C-598.5 249.333 -600.333 254.667 -604 259C-607.333 263 -612.333 265.167 -619 265.5L-632 266C-649.667 266 -665.167 266.333 -678.5 267C-715.5 269 -746.167 271.5 -770.5 274.5C-750.5 337.833 -740.5 377.833 -740.5 394.5C-740.5 410.833 -743.833 423.667 -750.5 433C-756.833 442.667 -766.667 447.5 -780 447.5ZM-660.5 120C-667.167 120 -672.5 118.167 -676.5 114.5C-680.5 110.833 -684 106.333 -687 101C-706 64.3333 -723.167 40 -738.5 28C-706.833 31.6666 -681.833 39.6666 -663.5 52C-645.167 64 -636 77.8333 -636 93.5C-636 101.5 -638.333 108 -643 113C-647.333 117.667 -653.167 120 -660.5 120ZM-393.5 448C-365.167 433.333 -340.5 412 -319.5 384C-298.5 355.667 -284.167 323.5 -276.5 287.5C-272.5 270.833 -269.667 246.5 -268 214.5C-266 182.5 -265 152 -265 123C-265 110 -265.167 101.167 -265.5 96.5C-266.5 72.5 -277.167 60.5 -297.5 60.5C-304.5 60.5 -311.667 61.6667 -319 64C-307.667 54.3333 -294.5 46.3333 -279.5 40C-264.5 33.6666 -251.333 30.5 -240 30.5C-235.333 30.5 -227.333 32.8333 -216 37.5C-204.333 42.1666 -193.667 47.3333 -184 53C-174 58.3333 -169 62 -169 64C-169 64.6667 -170.167 68.1666 -172.5 74.5C-174.5 80.8333 -175.833 93 -176.5 111L-178 163C-179 202 -180.167 232.833 -181.5 255.5C-182.5 277.833 -184.5 295.167 -187.5 307.5C-192.167 327.5 -203.833 346.667 -222.5 365C-240.833 383 -264.667 399.167 -294 413.5C-323.333 427.833 -356.5 439.333 -393.5 448ZM-421.5 333C-432.5 333 -440.5 330.167 -445.5 324.5C-450.5 318.5 -453 309.667 -453 298C-453 293.333 -452.833 289.667 -452.5 287C-448.167 241.333 -446 198.833 -446 159.5C-446 141.5 -446.5 126.5 -447.5 114.5C-449.5 90.1667 -460.167 78 -479.5 78C-484.833 78 -491 79 -498 81C-487.333 72.3333 -474.667 65.1666 -460 59.5C-445.333 53.8333 -432 51 -420 51C-415.333 51 -408 53.3333 -398 58C-387.667 62.3333 -378.333 67.1666 -370 72.5C-361.333 77.8333 -357 81.6667 -357 84C-357 85.3333 -358 89.1666 -360 95.5C-362 101.833 -364 110.667 -366 122C-368.667 143.333 -370 162.833 -370 180.5C-370 202.167 -368 228.333 -364 259C-363.667 261.333 -363.5 264.833 -363.5 269.5C-363.5 287.833 -369.167 303 -380.5 315C-391.833 327 -405.5 333 -421.5 333ZM-58.5 437C-21.1667 418.667 16.1667 394.333 53.5 364C90.8333 333.333 124.5 299.833 154.5 263.5C196.833 213.167 226.167 165.167 242.5 119.5C243.833 114.167 244.5 111.167 244.5 110.5C244.5 106.5 242.833 104.5 239.5 104.5C237.167 104.5 234.667 105.167 232 106.5C211.667 115.167 185.5 128.333 153.5 146L130 158.5C105 171.833 91.1667 178.5 88.5 178.5C83.5 178.5 73.5 173.333 58.5 163C43.5 152.333 34.5 144.667 31.5 140C25.5 130 20.6667 118.333 17 105C13.6667 91.3333 12.3333 79.1667 13 68.5C17 78.8333 23.3333 86.8333 32 92.5C40.6667 97.833 52.5 100.667 67.5 101C87.8333 101.333 111.5 100.667 138.5 99C165.833 97 192.833 93.1667 219.5 87.5C234.833 83.8333 245.667 78.6666 252 72C258.667 65 262.167 61.5 262.5 61.5C269.167 61.5 279.5 67 293.5 78C307.5 88.6667 320.5 100.5 332.5 113.5C344.5 126.167 350.5 134.333 350.5 138C350.5 138.333 348.167 141.167 343.5 146.5C338.833 151.5 334.167 157.667 329.5 165C303.833 205.667 275.5 242.833 244.5 276.5C273.167 279.5 299.167 286 322.5 296C345.833 305.667 364.167 318 377.5 333C390.833 347.667 397.5 363.667 397.5 381C397.5 393.667 393.667 404 386 412C378.333 420 368.333 424 356 424C345.667 424 336.833 421.5 329.5 416.5C322.167 411.5 316 405.167 311 397.5C306.333 389.833 300.5 379.167 293.5 365.5C284.167 346.833 275.333 331.5 267 319.5C258.667 307.167 247.833 296.333 234.5 287L225 296C188 332 148 360.833 105 382.5C62.3333 403.833 7.83333 422 -58.5 437ZM725 443C706.667 443 690.167 439.833 675.5 433.5C661.167 427.167 649.833 418.333 641.5 407C633.167 395.333 629 382.167 629 367.5C629 347.5 637.333 330.833 654 317.5C670.667 304.167 693.833 295.833 723.5 292.5L736 291.5L735.5 236L735 198C729 198.667 724.833 199 722.5 199C699.5 199 678.5 190.5 659.5 173.5C640.5 156.5 622.333 132.5 605 101.5C628.333 126.833 665.167 139.5 715.5 139.5C719.5 139.5 723 139.333 726 139C729 138.667 731.667 138.333 734 138L733 116.5C733 110.833 732.667 103.667 732 95C731 68 718.833 54.5 695.5 54.5C692.5 54.5 687 55.1667 679 56.5C692.667 47.1666 706.833 39.8333 721.5 34.5C736.167 29.1666 749.167 26.5 760.5 26.5C765.167 26.5 772.333 28.8333 782 33.5C791.667 37.8333 800.667 42.8333 809 48.5C817.333 53.8333 821.5 57.5 821.5 59.5C821.5 60.5 820 64.6666 817 72C814 79 811 93.5 808 115.5L807.5 121.5C811.167 120.167 816.333 117.833 823 114.5C831 109.5 834.167 102.833 832.5 94.5L882 115C888.333 118 891.5 123.5 891.5 131.5C891.5 146.5 880.167 159.667 857.5 171C843.833 178 825.333 184.167 802 189.5L801.5 209.5L802 229.5C803 252.833 804.833 275.667 807.5 298C834.833 304.667 856.833 315.5 873.5 330.5C890.167 345.167 898.5 362 898.5 381C898.5 392.333 895.167 401.5 888.5 408.5C882.167 415.167 873.5 418.5 862.5 418.5C858.833 418.5 855.333 417.167 852 414.5C849 411.833 845.167 407.5 840.5 401.5C834.5 393.167 827.167 385.167 818.5 377.5C818.5 382.833 818.333 386.5 818 388.5C815 405.5 805.333 418.833 789 428.5C772.667 438.167 751.333 443 725 443ZM568 439.5C548.333 439.5 531 433.167 516 420.5C501 408.167 489.333 390.833 481 368.5C473 345.833 469 319.833 469 290.5C469 269.5 470.333 248.333 473 227C475.667 205.667 479.333 182.167 484 156.5C486.333 143.5 488.333 131.167 490 119.5C491.667 107.5 492.5 98 492.5 91C492.5 60.6667 483 39.8333 464 28.5C477.333 29.1667 491.333 31.8333 506 36.5C520.667 40.8333 533.167 46.3333 543.5 53C548.167 56 553.833 62 560.5 71C567.5 79.6666 573.667 88.5 579 97.5C584.333 106.5 587 112.333 587 115C587 116.333 584 120.833 578 128.5C562 149.833 548 172.667 536 197C524 221.333 518 248.667 518 279C518 295.333 520.333 308.5 525 318.5C530 328.5 535.5 333.5 541.5 333.5C545.833 333.5 549.667 332 553 329C556.333 325.667 560.667 320.167 566 312.5L624 223L590 393C589.333 396 589 400.167 589 405.5C589 410.5 589.5 415.333 590.5 420C591.5 424.667 592 427.833 592 429.5C592 432.167 590 434.5 586 436.5C582 438.5 576 439.5 568 439.5ZM693 383C707 383 717.667 380.167 725 374.5C732.667 368.5 736.5 360 736.5 349V344C734.167 344 730.333 343.833 725 343.5C719.667 342.833 714.667 342.5 710 342.5C694.333 342.5 679 344 664 347C649 350 641.5 355.5 641.5 363.5C641.5 369.5 646.167 374.333 655.5 378C665.167 381.333 677.667 383 693 383ZM1092.5 398.5V448.5H1411V398.5H1092.5ZM1102 12.5V62.5H1400.5V12.5H1102ZM1292 116.5V161H1367.5V116.5H1292ZM1124 164.5V205H1168.5V276.5H1124V316.5H1208.5V164.5H1124ZM1105.5 164.5V351H1145.5V164.5H1105.5ZM1197.5 99L1184 143H1250V99H1197.5ZM1232.5 99V109.5C1230.5 271 1229.5 326.5 1222.5 337.5C1219 343.5 1215 345.5 1208.5 345C1201.5 345.5 1187.5 345 1171.5 343.5C1178.5 356 1184 375.5 1184.5 389C1203.5 389.5 1222.5 389 1234.5 387C1248 385 1258 380 1267 367C1278.5 349 1280 291.5 1281.5 121C1281.5 114.5 1282 99 1282 99H1232.5ZM1317 169.5L1279.5 178C1297 262 1329 336.5 1382.5 375.5C1390 363 1405 344.5 1416 335.5C1366 305 1333 239.5 1317 169.5ZM1353.5 116.5V125C1346 221.5 1317.5 302.5 1271 339C1281 347 1294.5 364 1301 375C1358.5 328 1389.5 245 1400 121.5L1371 115.5L1362 116.5H1353.5ZM1183 33.5C1175 70.5 1162 116 1151 147L1204.5 154.5C1215 123 1228.5 74.5 1238.5 33.5H1183ZM948 99V154H1100.5V99H948ZM1001.5 -4.5V465H1055V-4.5H1001.5ZM1000.5 137C990 200.5 965 279.5 936 322.5C944.5 336 956.5 358.5 961.5 373.5C994 322.5 1019.5 226 1031.5 147.5L1000.5 137ZM1052.5 176L1030.5 198C1043 221.5 1070.5 280.5 1080.5 310L1109 268.5C1101.5 254 1062.5 190 1052.5 176ZM1612.5 174.5V227.5H1909V174.5H1612.5ZM1702.5 281V459.5H1748V281H1702.5ZM1775 281V459H1820.5V281H1775ZM1730.5 -2.99999V127H1788V-2.99999H1730.5ZM1623.5 261V464H1677V311H1877V261H1623.5ZM1847 261V412.5C1847 416.5 1846 418 1842 418C1838.5 418.5 1828.5 418.5 1818.5 418C1825 431 1831 451 1832.5 465.5C1854.5 465.5 1871 465 1884.5 456.5C1897.5 449 1900.5 435.5 1900.5 413.5V261H1847ZM1728 192C1725.5 218 1718.5 253.5 1712 279L1762.5 293.5C1773 272 1785 239 1798.5 207L1728 192ZM1630.5 20V148.5H1893.5V20H1836.5V97H1685V20H1630.5ZM1448 90.5V144H1607V90.5H1448ZM1502.5 2.99999V116.5H1556V2.99999H1502.5ZM1437 351L1450 409.5C1499 397.5 1562 382 1620.5 366.5L1614.5 314C1550 328 1482.5 342.5 1437 351ZM1453.5 166C1462.5 213 1469 274.5 1468.5 315L1515.5 306.5C1515 266 1508.5 205.5 1497.5 158L1453.5 166ZM1549.5 154.5C1546 207 1536 279.5 1525.5 324.5L1569 335.5C1581 292.5 1594.5 222.5 1605 165.5L1549.5 154.5ZM2003 409.5C1989.33 409.5 1978.17 405 1969.5 396C1960.83 387 1956.5 375.667 1956.5 362C1956.5 347.333 1965.17 328 1982.5 304C2007.17 269.333 2028.67 234 2047 198L2055 181C2050.67 179.333 2048 178.167 2047 177.5C2030.67 171.167 2016.67 160 2005 144C1993.67 128 1983.17 107.667 1973.5 83C1982.83 95.667 1994.33 105.5 2008 112.5C2022 119.167 2039.17 123.167 2059.5 124.5C2062.83 124.833 2068 125 2075 125C2079.67 108.333 2082.83 95 2084.5 85C2085.17 79 2085.5 75 2085.5 73C2085.5 62 2082.17 54.1666 2075.5 49.5C2068.83 44.8333 2057.67 41.5 2042 39.5C2059 31.8333 2074.67 26.1667 2089 22.5C2103.67 18.5 2114.67 16.6666 2122 17C2126.67 17 2134.17 20 2144.5 26C2155.17 32 2164.83 38.5 2173.5 45.5C2182.5 52.1667 2187 56.5 2187 58.5C2187 59.1667 2185.83 61.3333 2183.5 65C2181.5 68.3333 2179 72.6666 2176 78C2169.67 88.3333 2162.67 100.667 2155 115C2165.33 112.333 2174.33 108.833 2182 104.5C2186.67 100.833 2189.83 97.667 2191.5 95C2192.5 93 2193 91 2193 89C2193 87 2192.83 85.5 2192.5 84.5L2243.5 108C2248.83 110.667 2251.5 114.667 2251.5 120C2251.5 125 2249.33 130.167 2245 135.5C2241 140.833 2235.17 145.833 2227.5 150.5C2215.5 158.167 2200.17 164.667 2181.5 170C2163.17 175.333 2143.5 179.5 2122.5 182.5C2113.17 202.5 2105.67 219.167 2100 232.5C2088.67 260.167 2078.33 287.167 2069 313.5L2060.5 335.5L2056 348C2051 362 2046.5 373.167 2042.5 381.5C2038.83 389.5 2033.67 396.167 2027 401.5C2020.67 406.833 2012.67 409.5 2003 409.5ZM2216 448.5C2197.67 448.5 2181 445.167 2166 438.5C2151 432.167 2139.17 423.5 2130.5 412.5C2122.17 401.167 2118 388.833 2118 375.5C2118 357.167 2125 342.5 2139 331.5C2153.33 320.167 2173.83 312.667 2200.5 309L2212.5 307.5C2212.17 305.167 2210.67 296.5 2208 281.5C2205.33 266.5 2204 254.667 2204 246C2204 232.667 2209.17 222.167 2219.5 214.5C2229.83 206.833 2243.83 203 2261.5 203C2270.83 203 2281.67 204.333 2294 207C2299.33 208.333 2302.67 209 2304 209C2308.33 209 2310.5 206.167 2310.5 200.5C2310.5 184.167 2305 170 2294 158C2283.33 145.667 2270 138.167 2254 135.5C2266 133.167 2278.33 132 2291 132C2310 132 2327 134.833 2342 140.5C2357 145.833 2368.67 153.5 2377 163.5C2385.33 173.167 2389.5 184.333 2389.5 197C2389.5 208.667 2385.17 218 2376.5 225C2368.17 232 2356.67 235.5 2342 235.5C2340.33 235.5 2337.5 233.5 2333.5 229.5C2328.83 225.167 2324.5 221.833 2320.5 219.5C2316.5 217.167 2311.5 216 2305.5 216C2289.17 216 2281 226.333 2281 247C2281 259.333 2283.5 280.5 2288.5 310.5C2317.83 316.167 2341.5 326.5 2359.5 341.5C2377.5 356.167 2386.5 373.167 2386.5 392.5C2386.5 403.5 2383.33 412.5 2377 419.5C2370.67 426.167 2362.5 429.5 2352.5 429.5C2349.17 429.5 2345.33 428 2341 425C2337 422 2331.5 417.333 2324.5 411C2315.17 402.333 2306.5 395 2298.5 389L2297 399.5C2294 415.5 2285.67 427.667 2272 436C2258.33 444.333 2239.67 448.5 2216 448.5ZM2178 392.5C2203.33 392.5 2216.83 381.333 2218.5 359V354.5C2210.83 353.167 2201.83 352.5 2191.5 352.5C2176.83 352.5 2162.83 353.833 2149.5 356.5C2136.5 358.833 2130 364.167 2130 372.5C2130 378.5 2134.33 383.333 2143 387C2152 390.667 2163.67 392.5 2178 392.5ZM2563 398C2558 398 2547.83 393.333 2532.5 384C2517.5 374.333 2508.5 367.333 2505.5 363C2499.5 353 2494.67 340.333 2491 325C2487.67 309.333 2486.33 295.833 2487 284.5C2491 294.833 2497.5 302.667 2506.5 308C2515.83 313.333 2529 316 2546 316C2577 316 2611.67 314.833 2650 312.5C2677.67 310.833 2702.83 308.5 2725.5 305.5C2732.17 272.5 2738.17 240.167 2743.5 208.5C2748.83 176.833 2752.5 152.833 2754.5 136.5C2754.83 134.833 2755 132.667 2755 130C2755 123.333 2752.5 120 2747.5 120C2741.5 120 2725.83 125.167 2700.5 135.5C2675.17 145.833 2647.17 158.667 2616.5 174C2607.83 178 2600.17 182 2593.5 186C2584.17 191 2578.67 193.5 2577 193.5C2571.67 193.5 2561.5 189.167 2546.5 180.5C2531.83 171.833 2523.17 165.167 2520.5 160.5C2514.5 150.833 2509.83 138.333 2506.5 123C2503.5 107.333 2502.33 92.8333 2503 79.5C2506.67 91.8333 2513.17 100.5 2522.5 105.5C2532.17 110.5 2546.83 113 2566.5 113C2587.17 113 2615.33 111.667 2651 109C2687 106.333 2713.5 103.333 2730.5 100C2746.17 96.333 2757.17 91.6667 2763.5 86C2770.17 80.3333 2773.67 77.5 2774 77.5C2780.67 77.5 2790.83 83 2804.5 94C2818.5 104.667 2831.5 116.333 2843.5 129C2855.5 141.667 2861.5 150 2861.5 154C2861.17 154.667 2858.67 157 2854 161C2849.33 165 2845.33 171.5 2842 180.5C2837.67 190.167 2833.17 207 2828.5 231C2823.83 254.667 2820.33 278.333 2818 302L2845 323.5C2853 329.833 2857 337.667 2857 347C2857 354.667 2854.83 360.833 2850.5 365.5C2846.17 370.167 2840.5 372.5 2833.5 372.5C2827.17 372.5 2819.33 371.833 2810 370.5C2800.67 369.167 2794.17 368.333 2790.5 368C2779.83 366.333 2768.33 364.833 2756 363.5C2743.67 362.167 2732.17 361.5 2721.5 361.5C2713.83 361.5 2708.17 361.667 2704.5 362C2679.5 363.667 2649.17 369.667 2613.5 380C2608.17 381.667 2602 383.833 2595 386.5C2588.33 389.167 2583.5 391 2580.5 392C2570.17 396 2564.33 398 2563 398ZM3072.5 442.5C3069.5 442.5 3059.67 435.667 3043 422C3026.67 408.667 3017.17 399.833 3014.5 395.5C3008.83 386.5 3004.5 372.5 3001.5 353.5C2998.5 334.5 2997.33 316.167 2998 298.5C3004 312.833 3011 323.167 3019 329.5C3027.33 335.833 3037.33 339 3049 339C3059.67 339 3072.33 336.667 3087 332C3121.67 321.333 3158.17 302.667 3196.5 276C3235.17 249 3271 217.667 3304 182C3337 146.333 3362.83 110.667 3381.5 75C3369.83 154.333 3340.33 224.167 3293 284.5C3245.67 344.833 3181.5 392.333 3100.5 427C3094.83 429.667 3088.83 432.833 3082.5 436.5C3076.5 440.5 3073.17 442.5 3072.5 442.5ZM3159.5 222.5C3148.83 222.5 3140 219.667 3133 214C3126 208.333 3117.67 198.833 3108 185.5C3103 178.833 3098.5 173 3094.5 168L3087 158C3075.33 142.667 3064.17 130.333 3053.5 121C3042.83 111.333 3028 103.833 3009 98.5C3013.33 98.167 3019.67 98 3028 98C3053 98 3076.33 100.167 3098 104.5C3120 108.833 3138.67 115 3154 123C3168.33 130.333 3179.5 139 3187.5 149C3195.5 159 3199.5 170.167 3199.5 182.5C3199.5 193.5 3195.67 203 3188 211C3180.33 218.667 3170.83 222.5 3159.5 222.5ZM3662 441.5C3647.67 441.5 3634.5 436.667 3622.5 427C3610.83 417.667 3601.83 406.333 3595.5 393C3589.17 379.667 3586.67 367.833 3588 357.5C3595 298.167 3598.5 240 3598.5 183C3598.5 151.667 3597.17 124.5 3594.5 101.5C3592.83 89.1667 3589.5 80 3584.5 74C3579.83 67.6667 3573 64.5 3564 64.5C3559 64.5 3553 65.5 3546 67.5C3556.67 58.8333 3569.33 51.6667 3584 46C3598.67 40 3612 37 3624 37C3628.67 37 3636.33 39.3333 3647 44C3658 48.6666 3668.17 53.8333 3677.5 59.5C3686.83 64.8333 3691.5 68.5 3691.5 70.5L3689.5 82.5C3687.5 91.8333 3685.5 101.667 3683.5 112C3679.5 138 3676.5 164.333 3674.5 191C3709.5 194 3741 200.667 3769 211C3797 221.333 3818.83 234.333 3834.5 250C3850.5 265.667 3858.5 282.5 3858.5 300.5C3858.5 312.167 3854.83 322 3847.5 330C3840.5 337.667 3831.5 341.5 3820.5 341.5C3810.17 341.5 3801 338.833 3793 333.5C3785 328.167 3778.17 321.667 3772.5 314C3766.83 306.333 3759.83 295.333 3751.5 281C3739.5 260 3727.83 243 3716.5 230C3705.5 217 3691.17 207.667 3673.5 202C3672.83 221.333 3672.5 234.833 3672.5 242.5C3672.83 274.167 3676 314.667 3682 364C3684.33 382 3685.67 395.333 3686 404C3686.67 415 3685.17 424 3681.5 431C3677.83 438 3671.33 441.5 3662 441.5ZM4086.5 128C4081.17 128 4071.17 124.5 4056.5 117.5C4041.83 110.167 4033.17 104.333 4030.5 100C4024.17 90.3333 4019.33 79.3333 4016 67C4013 54.3333 4011.83 43 4012.5 33C4016.5 41.6666 4023 48.1667 4032 52.5C4041 56.8333 4054 59 4071 59C4106.33 59 4139.33 57 4170 53C4185 51.3333 4199.83 48.8333 4214.5 45.5C4229.17 42.1666 4240 39 4247 36C4260.33 31 4267 25.8333 4267 20.5L4325.5 60.5C4330.5 63.8333 4334 67.3333 4336 71C4338.33 74.6667 4339.5 78.8333 4339.5 83.5C4339.5 89.1667 4337.5 93.8333 4333.5 97.5C4329.5 101.167 4324.17 103 4317.5 103L4304.5 101.5L4265.5 97.5C4253.5 96.5 4242.67 96 4233 96C4220.67 96 4205.83 97 4188.5 99C4178.17 100.667 4167.5 103 4156.5 106C4145.83 108.667 4134.67 111.833 4123 115.5C4114.67 118.167 4106.67 121 4099 124C4091.33 126.667 4087.17 128 4086.5 128ZM3989 450C4022.67 434.333 4055.17 415.833 4086.5 394.5C4117.83 373.167 4146 350 4171 325C4214.67 281.667 4245.33 237 4263 191C4264.33 188 4265 184.833 4265 181.5C4265 178.167 4264.17 175.5 4262.5 173.5C4260.83 171.5 4258.5 170.5 4255.5 170.5C4253.17 170.5 4251.33 170.833 4250 171.5C4220 181.167 4175.17 200 4115.5 228C4107.5 231.667 4098 236.333 4087 242C4079.33 246.333 4074.83 248.5 4073.5 248.5C4068.83 248.5 4058.83 243.333 4043.5 233C4028.5 222.333 4019.67 214.667 4017 210C4010.67 200 4005.83 188.333 4002.5 175C3999.17 161.667 3997.83 149.5 3998.5 138.5C4002.5 148.833 4008.83 156.833 4017.5 162.5C4026.17 167.833 4038 170.667 4053 171C4073.67 171 4103 169.5 4141 166.5C4179.33 163.5 4211.83 159 4238.5 153C4254.17 149.667 4265.17 145.333 4271.5 140C4278.17 134.333 4281.67 131.5 4282 131.5C4288.67 131.5 4299 136.833 4313 147.5C4327 158.167 4339.83 170 4351.5 183C4363.5 195.667 4369.5 204 4369.5 208C4369.5 208.333 4367.17 211.167 4362.5 216.5C4357.83 221.5 4353.33 227.5 4349 234.5C4331.33 262.833 4312.83 287.333 4293.5 308C4274.5 328.667 4253.67 346.667 4231 362C4200.67 382.333 4166 399.5 4127 413.5C4088.33 427.167 4042.33 439.333 3989 450ZM4441.5 437C4478.83 418.667 4516.17 394.333 4553.5 364C4590.83 333.333 4624.5 299.833 4654.5 263.5C4696.83 213.167 4726.17 165.167 4742.5 119.5C4743.83 114.167 4744.5 111.167 4744.5 110.5C4744.5 106.5 4742.83 104.5 4739.5 104.5C4737.17 104.5 4734.67 105.167 4732 106.5C4711.67 115.167 4685.5 128.333 4653.5 146L4630 158.5C4605 171.833 4591.17 178.5 4588.5 178.5C4583.5 178.5 4573.5 173.333 4558.5 163C4543.5 152.333 4534.5 144.667 4531.5 140C4525.5 130 4520.67 118.333 4517 105C4513.67 91.3333 4512.33 79.1667 4513 68.5C4517 78.8333 4523.33 86.8333 4532 92.5C4540.67 97.833 4552.5 100.667 4567.5 101C4587.83 101.333 4611.5 100.667 4638.5 99C4665.83 97 4692.83 93.1667 4719.5 87.5C4734.83 83.8333 4745.67 78.6666 4752 72C4758.67 65 4762.17 61.5 4762.5 61.5C4769.17 61.5 4779.5 67 4793.5 78C4807.5 88.6667 4820.5 100.5 4832.5 113.5C4844.5 126.167 4850.5 134.333 4850.5 138C4850.5 138.333 4848.17 141.167 4843.5 146.5C4838.83 151.5 4834.17 157.667 4829.5 165C4803.83 205.667 4775.5 242.833 4744.5 276.5C4773.17 279.5 4799.17 286 4822.5 296C4845.83 305.667 4864.17 318 4877.5 333C4890.83 347.667 4897.5 363.667 4897.5 381C4897.5 393.667 4893.67 404 4886 412C4878.33 420 4868.33 424 4856 424C4845.67 424 4836.83 421.5 4829.5 416.5C4822.17 411.5 4816 405.167 4811 397.5C4806.33 389.833 4800.5 379.167 4793.5 365.5C4784.17 346.833 4775.33 331.5 4767 319.5C4758.67 307.167 4747.83 296.333 4734.5 287L4725 296C4688 332 4648 360.833 4605 382.5C4562.33 403.833 4507.83 422 4441.5 437ZM5162 441.5C5147.67 441.5 5134.5 436.667 5122.5 427C5110.83 417.667 5101.83 406.333 5095.5 393C5089.17 379.667 5086.67 367.833 5088 357.5C5095 298.167 5098.5 240 5098.5 183C5098.5 151.667 5097.17 124.5 5094.5 101.5C5092.83 89.1667 5089.5 80 5084.5 74C5079.83 67.6667 5073 64.5 5064 64.5C5059 64.5 5053 65.5 5046 67.5C5056.67 58.8333 5069.33 51.6667 5084 46C5098.67 40 5112 37 5124 37C5128.67 37 5136.33 39.3333 5147 44C5158 48.6666 5168.17 53.8333 5177.5 59.5C5186.83 64.8333 5191.5 68.5 5191.5 70.5L5189.5 82.5C5187.5 91.8333 5185.5 101.667 5183.5 112C5179.5 138 5176.5 164.333 5174.5 191C5209.5 194 5241 200.667 5269 211C5297 221.333 5318.83 234.333 5334.5 250C5350.5 265.667 5358.5 282.5 5358.5 300.5C5358.5 312.167 5354.83 322 5347.5 330C5340.5 337.667 5331.5 341.5 5320.5 341.5C5310.17 341.5 5301 338.833 5293 333.5C5285 328.167 5278.17 321.667 5272.5 314C5266.83 306.333 5259.83 295.333 5251.5 281C5239.5 260 5227.83 243 5216.5 230C5205.5 217 5191.17 207.667 5173.5 202C5172.83 221.333 5172.5 234.833 5172.5 242.5C5172.83 274.167 5176 314.667 5182 364C5184.33 382 5185.67 395.333 5186 404C5186.67 415 5185.17 424 5181.5 431C5177.83 438 5171.33 441.5 5162 441.5ZM-1107 767C-1112.67 767 -1117.33 765.667 -1121 763C-1124.67 760.333 -1128.17 757.333 -1131.5 754C-1134.5 750.333 -1136.67 747.833 -1138 746.5C-1148.67 735.167 -1159.67 725.5 -1171 717.5C-1182.33 709.5 -1192.17 704.667 -1200.5 703C-1185.83 699.667 -1171.5 698 -1157.5 698C-1136.5 698 -1119.5 701.667 -1106.5 709C-1093.17 716.333 -1085.5 725.833 -1083.5 737.5C-1082.5 745.833 -1084.17 752.833 -1088.5 758.5C-1092.83 764.167 -1099 767 -1107 767ZM-1489.5 1127.5C-1501.83 1127.5 -1512.17 1123.33 -1520.5 1115C-1528.5 1107 -1532.5 1096.83 -1532.5 1084.5C-1532.5 1077.83 -1531.5 1071 -1529.5 1064C-1527.17 1057 -1522.5 1046.33 -1515.5 1032C-1508.5 1017.67 -1496.83 994.833 -1480.5 963.5C-1468.5 939.167 -1456 911.833 -1443 881.5C-1447.33 883.5 -1452.5 886.5 -1458.5 890.5L-1468.5 898C-1478.5 905.667 -1484.33 909.5 -1486 909.5C-1490.67 909.5 -1499.67 905 -1513 896C-1526.33 887 -1534.5 880.167 -1537.5 875.5C-1544.83 861.833 -1548.5 843.167 -1548.5 819.5C-1548.5 812.167 -1548.33 806.833 -1548 803.5C-1544.33 814.167 -1538.33 822.333 -1530 828C-1521.67 833.667 -1510 837.167 -1495 838.5C-1488.67 838.833 -1479.33 839 -1467 839C-1456.67 839 -1443.17 838.667 -1426.5 838C-1419.17 818 -1413.5 799 -1409.5 781C-1407.17 770 -1406 761.167 -1406 754.5C-1406 729.833 -1418.17 714.5 -1442.5 708.5C-1433.17 707.167 -1423.33 706.5 -1413 706.5C-1401.33 706.5 -1390.83 707.5 -1381.5 709.5C-1371.83 711.167 -1364 713.5 -1358 716.5C-1352.67 718.833 -1343.5 727.5 -1330.5 742.5C-1317.5 757.5 -1311 766.833 -1311 770.5C-1311 771.5 -1314.5 777.5 -1321.5 788.5C-1328.17 799.167 -1336.17 813.167 -1345.5 830.5C-1330.5 828.833 -1319.5 828 -1312.5 828C-1290.17 828 -1272.83 833.167 -1260.5 843.5C-1247.83 853.5 -1239 868.333 -1234 888C-1229 907.333 -1226.5 932.333 -1226.5 963C-1226.5 995.67 -1230.67 1024.33 -1239 1049C-1247.33 1073.67 -1259.17 1092.67 -1274.5 1106C-1289.83 1119.33 -1307.83 1126 -1328.5 1126C-1330.83 1126 -1332.5 1125.17 -1333.5 1123.5C-1334.5 1122.17 -1335.67 1119.83 -1337 1116.5C-1338 1111.83 -1340.17 1107.5 -1343.5 1103.5C-1347.83 1098.5 -1355.33 1091.67 -1366 1083L-1417.5 1043C-1394.17 1045.33 -1378.67 1047 -1371 1048C-1356.33 1049.33 -1348.67 1050 -1348 1050C-1336 1050 -1326.67 1040.17 -1320 1020.5C-1313 1000.5 -1309.5 971.167 -1309.5 932.5C-1309.5 902.167 -1312 879.5 -1317 864.5C-1322 849.167 -1330.33 841.5 -1342 841.5C-1343.33 841.5 -1344.83 841.667 -1346.5 842C-1348.17 842.333 -1350 842.5 -1352 842.5C-1367.33 872.833 -1379.67 900.167 -1389 924.5C-1398 948.5 -1406 972 -1413 995C-1420 1018 -1427.67 1044.83 -1436 1075.5C-1445.67 1110.17 -1463.5 1127.5 -1489.5 1127.5ZM-1153 817.5C-1162.33 817.5 -1170.5 812.667 -1177.5 803C-1202.83 769 -1223.67 747.5 -1240 738.5C-1208 737.167 -1182.17 741.167 -1162.5 750.5C-1142.5 759.5 -1131.17 771.833 -1128.5 787.5C-1128.17 788.5 -1128 790.167 -1128 792.5C-1128 799.833 -1130.33 805.833 -1135 810.5C-1139.33 815.167 -1145.33 817.5 -1153 817.5ZM-1149 1011C-1152 1011 -1154 1010.5 -1155 1009.5C-1156 1008.17 -1157 1006.17 -1158 1003.5C-1159.33 997.5 -1162.17 992.5 -1166.5 988.5L-1220.5 939.5L-1210.5 941C-1195.83 943 -1187 944 -1184 944C-1179.33 944 -1175.83 942.333 -1173.5 939C-1170.83 935.667 -1169.5 930.833 -1169.5 924.5C-1169.5 900.833 -1177.5 877.667 -1193.5 855C-1209.5 832 -1230.17 814.5 -1255.5 802.5C-1224.17 808.167 -1196.33 818.167 -1172 832.5C-1147.67 846.833 -1128.67 864.167 -1115 884.5C-1101.33 904.5 -1094.5 925.833 -1094.5 948.5C-1094.5 968.833 -1099.5 984.333 -1109.5 995C-1119.17 1005.67 -1132.33 1011 -1149 1011ZM-853 724V778.5H-612V724H-853ZM-883 821V876.5H-590V821H-883ZM-872 921.5V977H-595V921.5H-872ZM-764 679V851.5H-704.5V679H-764ZM-704.5 870.5V1081C-704.5 1088 -707 1089.5 -715 1089.5C-723.5 1090 -751 1090 -775.5 1089C-767.5 1105.5 -759.5 1131 -757.5 1148.5C-719.5 1148.5 -691 1147 -671 1138C-651 1129 -645 1112.5 -645 1082V870.5H-704.5ZM-854.5 1004C-833 1028 -807.5 1061 -797 1083L-749.5 1052C-761.5 1030 -788 998.5 -810 976.5L-854.5 1004ZM-1061 946L-1046.5 1003.5C-993.5 988 -925 967.5 -862 947.5L-870 895C-939 914.5 -1012 935 -1061 946ZM-971 679.5V1149H-916V679.5H-971ZM-1037 705.5C-1041.5 764.5 -1050 827 -1066 867.5C-1054 873.5 -1032.5 887 -1023.5 894.5C-1005.5 849.5 -993.5 780 -987 714L-1037 705.5ZM-1023.5 774L-1034.5 831H-874.5V774H-1023.5ZM-208.5 777L-222.5 827.5H-88V777H-208.5ZM-216.5 679.5C-226 759 -243 836.5 -276.5 886C-266 897 -248 923 -241.5 935C-199.5 875.5 -175.5 782.5 -162 688.5L-216.5 679.5ZM-366.5 680V835H-318V680H-366.5ZM-428 722V855.5H-254V722.5H-296V809.5H-388V722H-428ZM-426 884V930.5H-259V884H-426ZM-419 963.5V1008.5H-264.5V963.5H-419ZM-437.5 1052L-429.5 1103C-380.5 1098 -316 1092 -253.5 1085L-254 1039C-322 1044.5 -391 1049 -437.5 1052ZM-367 908.5V1069.5L-316.5 1062.5V908.5H-367ZM-198.5 826L-238 831.5C-223 970.5 -195 1086 -119 1146C-111 1131.5 -94 1110.5 -82 1101C-155 1053 -185 946.5 -198.5 826ZM-159.5 808C-168.5 957 -200.5 1056.5 -300 1110.5C-289 1120 -269 1140.5 -262.5 1150.5C-158 1085.5 -120.5 977.5 -107 811L-159.5 808ZM-482 679C-499 710.5 -534 750.5 -565 775C-556 786 -542 808.5 -535 821C-497 790 -455.5 743 -428 699.5L-482 679ZM-474 784.5C-496.5 834.5 -533.5 885 -568.5 918.5C-559 931.5 -542.5 960.5 -537 973C-495.5 931 -450.5 864 -422 803L-474 784.5ZM-508 894V1149H-454V840V839.5L-508 894ZM305.5 1128C268.833 1128 236.167 1121.83 207.5 1109.5C179.167 1097.17 157 1080 141 1058C125.333 1036 117.5 1010.83 117.5 982.5C117.5 948.833 129.167 917.333 152.5 888C175.833 858.667 209.5 833.333 253.5 812L251 807C186 825.333 124.5 849.167 66.5 878.5C62.1667 880.5 53.8333 885.333 41.5 893C33.5 898.667 28.1667 901.5 25.5 901.5C20.5 901.5 10 896.167 -6 885.5C-21.6667 874.833 -31 867.167 -34 862.5C-47.3333 841.167 -53.5 815.333 -52.5 785C-47.8333 797.333 -41 805.833 -32 810.5C-23 814.833 -10.3333 817 6 817C12.3333 817 21.8333 816.167 34.5 814.5C47.5 812.833 61.5 810.5 76.5 807.5C99.5 802.833 127.333 796.167 160 787.5C193 778.833 220.833 771 243.5 764C261.167 758 275.333 752.833 286 748.5C304 742.167 317.167 737.833 325.5 735.5C334.167 732.833 343 731.5 352 731.5C368 731.5 381.167 736.167 391.5 745.5C401.833 754.833 407 767 407 782C407 792.667 404.667 801.5 400 808.5C395.333 815.167 389.333 818.5 382 818.5C380.667 818.5 375.333 817.167 366 814.5L348 809.5C338.667 807.833 329.5 807 320.5 807C311.5 807 303.5 807.667 296.5 809C271.5 814.667 249.667 823.667 231 836C212.333 848 197.833 862.333 187.5 879C177.5 895.667 172.5 913.5 172.5 932.5C172.5 964.5 186.167 989.5 213.5 1007.5C241.167 1025.5 279.333 1034.5 328 1034.5C346 1034.5 359.833 1038 369.5 1045C379.167 1052 384 1062.17 384 1075.5C384 1092.83 377.167 1105.83 363.5 1114.5C350.167 1123.5 330.833 1128 305.5 1128ZM387.5 904.5C379.833 904.5 374 902.667 370 899C366.333 895 361.667 888.5 356 879.5C347 866.833 337.5 855.667 327.5 846C317.833 836.333 308.833 829.833 300.5 826.5L312.5 826C332.167 826 349.333 828.5 364 833.5C379 838.167 390.5 844.667 398.5 853C406.5 861 410.5 869.667 410.5 879C410.5 886.333 408.333 892.5 404 897.5C399.667 902.167 394.167 904.5 387.5 904.5ZM334 948C327.333 948 322 946.167 318 942.5C314 938.833 310.5 934.333 307.5 929C287.833 891.667 270.667 867.333 256 856C287.667 859.667 312.667 867.5 331 879.5C349.333 891.5 358.5 905.5 358.5 921.5C358.5 929.5 356.167 936 351.5 941C347.167 945.667 341.333 948 334 948ZM744 740.5V1094H796.5V740.5H744ZM649.5 717V1141.5H703V772.5H839.5V1137.5H895.5V717H649.5ZM679 888.5V942.5H861.5V888.5H679ZM679 1060V1114.5H861V1060H679ZM518 925V1148.5H571V925H518ZM516.5 679C505 714 483.5 762.5 465 792.5L506 810.5C525 782 549 738 569.5 699L516.5 679ZM577 739.5C550.5 793.5 504.5 866 466.5 911L501.5 931C540.5 888.5 589 819.5 626 763L577 739.5ZM439 797C464.5 820.5 495 855 507 878.5L537.5 831.5C524.5 809.5 493 778 467 755.5L439 797ZM565.5 858.5C585 893 604 938.5 610 967L656.5 945C650 916.5 629.5 873 609 839.5L565.5 858.5ZM437.5 898L446 951C495.5 945.5 559 939 620.5 932.5L619.5 885.5C552.5 890.5 484 895.5 437.5 898ZM572.5 985.5C584.5 1016.5 598 1057.5 602.5 1084L650.5 1067C644 1041 630.5 1001 617.5 970.5L572.5 985.5ZM460.5 972.5C456.5 1015 448.5 1060 434.5 1089.5C447 1094 469.5 1104.5 480 1111C494 1079 505 1029 510 981.5L460.5 972.5ZM1012 1127.5C999.67 1127.5 989.333 1123.33 981 1115C973 1107 969 1096.83 969 1084.5C969 1077.83 970 1071 972 1064C974.333 1057 979 1046.33 986 1032C993 1017.67 1004.67 994.833 1021 963.5C1033 939.167 1045.5 911.833 1058.5 881.5C1054.17 883.5 1049 886.5 1043 890.5L1033 898C1023 905.667 1017.17 909.5 1015.5 909.5C1010.83 909.5 1001.83 905 988.5 896C975.167 887 967 880.167 964 875.5C956.667 861.833 953 843.167 953 819.5C953 812.167 953.167 806.833 953.5 803.5C957.167 814.167 963.167 822.333 971.5 828C979.833 833.667 991.5 837.167 1006.5 838.5C1012.83 838.833 1022.17 839 1034.5 839C1044.83 839 1058.33 838.667 1075 838C1082.33 818 1088 799 1092 781C1094.33 770 1095.5 761.167 1095.5 754.5C1095.5 729.833 1083.33 714.5 1059 708.5C1068.33 707.167 1078.17 706.5 1088.5 706.5C1100.17 706.5 1110.67 707.5 1120 709.5C1129.67 711.167 1137.5 713.5 1143.5 716.5C1148.83 718.833 1158 727.5 1171 742.5C1184 757.5 1190.5 766.833 1190.5 770.5C1190.5 771.5 1187 777.5 1180 788.5C1173.33 799.167 1165.33 813.167 1156 830.5C1171 828.833 1182 828 1189 828C1211.33 828 1228.67 833.167 1241 843.5C1253.67 853.5 1262.5 868.333 1267.5 888C1272.5 907.333 1275 932.333 1275 963C1275 995.67 1270.83 1024.33 1262.5 1049C1254.17 1073.67 1242.33 1092.67 1227 1106C1211.67 1119.33 1193.67 1126 1173 1126C1170.67 1126 1169 1125.17 1168 1123.5C1167 1122.17 1165.83 1119.83 1164.5 1116.5C1163.5 1111.83 1161.33 1107.5 1158 1103.5C1153.67 1098.5 1146.17 1091.67 1135.5 1083L1084 1043C1107.33 1045.33 1122.83 1047 1130.5 1048C1145.17 1049.33 1152.83 1050 1153.5 1050C1165.5 1050 1174.83 1040.17 1181.5 1020.5C1188.5 1000.5 1192 971.167 1192 932.5C1192 902.167 1189.5 879.5 1184.5 864.5C1179.5 849.167 1171.17 841.5 1159.5 841.5C1158.17 841.5 1156.67 841.667 1155 842C1153.33 842.333 1151.5 842.5 1149.5 842.5C1134.17 872.833 1121.83 900.167 1112.5 924.5C1103.5 948.5 1095.5 972 1088.5 995C1081.5 1018 1073.83 1044.83 1065.5 1075.5C1055.83 1110.17 1038 1127.5 1012 1127.5ZM1352.5 1011C1349.5 1011 1347.5 1010.5 1346.5 1009.5C1345.5 1008.17 1344.5 1006.17 1343.5 1003.5C1342.17 997.5 1339.33 992.5 1335 988.5L1281 939.5L1291 941C1305.33 943 1314.17 944 1317.5 944C1322.17 944 1325.67 942.333 1328 939C1330.67 935.667 1332 930.833 1332 924.5C1332 900.833 1324 877.667 1308 855C1292 832 1271.33 814.5 1246 802.5C1277.33 808.167 1305.17 818.167 1329.5 832.5C1353.83 846.833 1372.83 864.167 1386.5 884.5C1400.17 904.5 1407 925.833 1407 948.5C1407 968.833 1402 984.333 1392 995C1382.33 1005.67 1369.17 1011 1352.5 1011ZM1605.5 1101C1582.5 1101 1562.33 1094.83 1545 1082.5C1528 1069.83 1514.83 1051.5 1505.5 1027.5C1496.17 1003.17 1491.5 974 1491.5 940C1491.5 923.333 1492.17 899.333 1493.5 868C1493.83 860.667 1494.17 852.167 1494.5 842.5C1494.83 832.833 1495 822.333 1495 811C1495 777 1483.17 755.667 1459.5 747C1462.5 746.667 1466.83 746.5 1472.5 746.5C1486.17 746.5 1499.5 747.833 1512.5 750.5C1525.83 752.833 1536.67 756 1545 760C1552 763.667 1562.17 772.333 1575.5 786C1589.17 799.333 1596 807.667 1596 811C1596 812 1593.5 816.333 1588.5 824C1575.5 844 1564.17 864.167 1554.5 884.5C1545.17 904.833 1540.5 924.833 1540.5 944.5C1540.5 961.167 1543.83 974.333 1550.5 984C1557.5 993.667 1566.83 998.5 1578.5 998.5C1591.83 998.5 1609.5 985.833 1631.5 960.5L1686.5 894L1639.5 1044C1636.5 1054.67 1635 1064.33 1635 1073C1635 1076.67 1635.17 1079.67 1635.5 1082C1635.83 1084.33 1636 1086.17 1636 1087.5C1636 1091.5 1633.17 1094.83 1627.5 1097.5C1622.17 1099.83 1614.83 1101 1605.5 1101ZM1854.5 1006.5C1839.83 1006.5 1827.83 1001.67 1818.5 992C1809.17 982.333 1801.67 967 1796 946C1785.67 908 1773.83 877.833 1760.5 855.5C1747.17 833.167 1728.5 818.667 1704.5 812C1740.83 812 1773.5 818.167 1802.5 830.5C1831.5 842.833 1854.17 859.667 1870.5 881C1886.83 902.333 1895 926.167 1895 952.5C1895 969.5 1891.33 982.833 1884 992.5C1876.67 1001.83 1866.83 1006.5 1854.5 1006.5ZM2243 1107.5C2195.33 1107.5 2159 1098.67 2134 1081C2109.33 1063 2096.67 1036.83 2096 1002.5L2094.5 910L2066 923.5C2063.33 924.833 2054 930.333 2038 940C2030.67 945.333 2026 948 2024 948C2018.67 948 2008.83 943 1994.5 933C1980.17 922.667 1971.33 914.667 1968 909C1961.67 899 1957.17 887.167 1954.5 873.5C1952.17 859.833 1951.5 847 1952.5 835C1955.83 845 1961.67 852.167 1970 856.5C1978.33 860.833 1990.17 863 2005.5 863C2016.83 863 2046.17 859.667 2093.5 853L2092 776C2091 751 2080.83 738.5 2061.5 738.5C2055.83 738.5 2049.83 739.5 2043.5 741.5C2053.83 732.833 2066.33 725.667 2081 720C2096 714.333 2109.5 711.5 2121.5 711.5C2126.17 711.5 2134.17 713.833 2145.5 718.5C2156.83 723.167 2167.33 728.167 2177 733.5C2186.67 738.833 2191.5 742.5 2191.5 744.5C2191.5 746.167 2190.83 749.833 2189.5 755.5C2189.17 758.167 2188.5 761.667 2187.5 766C2186.5 770.333 2185.5 776 2184.5 783C2181.5 800.667 2178 819.833 2174 840.5C2212.67 832.833 2243.33 825.5 2266 818.5C2277 815.167 2285.67 810.833 2292 805.5C2298.67 800.167 2304 795 2308 790C2312 784.667 2314.5 782 2315.5 782C2320.5 782 2329.5 787.667 2342.5 799C2355.5 810 2367.67 822 2379 835C2390.33 848 2396 856.667 2396 861C2396 861.667 2393.33 864 2388 868C2383 872 2378.5 876 2374.5 880C2356.83 897.333 2333 914.5 2303 931.5C2273 948.167 2239.17 963 2201.5 976C2221.17 958.333 2240.17 935.833 2258.5 908.5C2277.17 880.833 2290.17 856.167 2297.5 834.5C2298.83 831.5 2299.5 828.833 2299.5 826.5C2299.5 824.167 2298.33 823 2296 823C2295 823 2293.5 823.333 2291.5 824C2258.83 834.667 2217.17 851.5 2166.5 874.5C2157.83 922.167 2153.5 958.333 2153.5 983C2153.83 999.67 2159.67 1012.5 2171 1021.5C2182.67 1030.17 2199 1034.5 2220 1034.5C2231 1034.5 2241 1033.67 2250 1032C2259.33 1030 2269.83 1027.17 2281.5 1023.5C2283.5 1023.17 2289.17 1021.67 2298.5 1019C2308.17 1016.33 2317.83 1014.83 2327.5 1014.5C2339.5 1014.5 2349.5 1017.83 2357.5 1024.5C2365.5 1031.17 2369.5 1039.83 2369.5 1050.5C2369.5 1072.5 2356.67 1087.67 2331 1096C2310.67 1103.67 2281.33 1107.5 2243 1107.5ZM2606.5 1132C2634.83 1117.33 2659.5 1096 2680.5 1068C2701.5 1039.67 2715.83 1007.5 2723.5 971.5C2727.5 954.833 2730.33 930.5 2732 898.5C2734 866.5 2735 836 2735 807C2735 794 2734.83 785.167 2734.5 780.5C2733.5 756.5 2722.83 744.5 2702.5 744.5C2695.5 744.5 2688.33 745.667 2681 748C2692.33 738.333 2705.5 730.333 2720.5 724C2735.5 717.667 2748.67 714.5 2760 714.5C2764.67 714.5 2772.67 716.833 2784 721.5C2795.67 726.167 2806.33 731.333 2816 737C2826 742.333 2831 746 2831 748C2831 748.667 2829.83 752.167 2827.5 758.5C2825.5 764.833 2824.17 777 2823.5 795L2822 847C2821 886 2819.83 916.833 2818.5 939.5C2817.5 961.833 2815.5 979.167 2812.5 991.5C2807.83 1011.5 2796.17 1030.67 2777.5 1049C2759.17 1067 2735.33 1083.17 2706 1097.5C2676.67 1111.83 2643.5 1123.33 2606.5 1132ZM2578.5 1017C2567.5 1017 2559.5 1014.17 2554.5 1008.5C2549.5 1002.5 2547 993.667 2547 982C2547 977.333 2547.17 973.667 2547.5 971C2551.83 925.333 2554 882.833 2554 843.5C2554 825.5 2553.5 810.5 2552.5 798.5C2550.5 774.167 2539.83 762 2520.5 762C2515.17 762 2509 763 2502 765C2512.67 756.333 2525.33 749.167 2540 743.5C2554.67 737.833 2568 735 2580 735C2584.67 735 2592 737.333 2602 742C2612.33 746.333 2621.67 751.167 2630 756.5C2638.67 761.833 2643 765.667 2643 768C2643 769.333 2642 773.167 2640 779.5C2638 785.833 2636 794.667 2634 806C2631.33 827.333 2630 846.833 2630 864.5C2630 886.167 2632 912.333 2636 943C2636.33 945.333 2636.5 948.833 2636.5 953.5C2636.5 971.833 2630.83 987 2619.5 999C2608.17 1011 2594.5 1017 2578.5 1017ZM2978 1121C3012.33 1104.67 3046.17 1083 3079.5 1056C3113.17 1028.67 3144 998 3172 964C3194.33 937 3213.83 909.667 3230.5 882C3247.17 854 3259.67 827.833 3268 803.5C3268.67 800.167 3269 798 3269 797C3269 793.333 3267.33 791.5 3264 791.5C3262 791.5 3259.67 792 3257 793C3233 800 3185.67 819 3115 850C3108.67 852.667 3100.5 856.5 3090.5 861.5C3080.5 866.5 3074.67 869 3073 869C3068.33 869 3058.33 863.5 3043 852.5C3027.67 841.5 3018.67 833.667 3016 829C3010 819.333 3005.33 807 3002 792C2998.67 777 2997.33 763.833 2998 752.5C3001.67 762.833 3008 770.667 3017 776C3026.33 781.333 3039.67 784.167 3057 784.5C3080.67 784.833 3111.33 784.167 3149 782.5C3187 780.5 3219.17 776.833 3245.5 771.5C3261.5 767.833 3272.5 762.667 3278.5 756C3284.83 749 3288.17 745.5 3288.5 745.5C3295.17 745.5 3305.5 751 3319.5 762C3333.5 772.667 3346.5 784.333 3358.5 797C3370.5 809.667 3376.5 818 3376.5 822C3376.5 822.333 3374.17 825 3369.5 830C3364.83 835 3360.33 841.333 3356 849C3335 884.333 3314.33 915.167 3294 941.5C3274 967.833 3252.17 991.167 3228.5 1011.5C3197.17 1037.83 3161.33 1060 3121 1078C3080.67 1095.67 3033 1110 2978 1121ZM3700 1123C3668 1123 3639.67 1118.33 3615 1109C3590.33 1099.67 3571 1086.5 3557 1069.5C3543.33 1052.5 3536.5 1033 3536.5 1011C3536.5 992.333 3543.17 973.667 3556.5 955C3569.83 936 3588.83 916.167 3613.5 895.5C3586.83 882.167 3572 864.333 3569 842L3560.5 769.5C3557.17 740.167 3540.83 725.833 3511.5 726.5C3524.17 720.167 3537.33 715.167 3551 711.5C3565 707.833 3577.83 706 3589.5 706C3594.17 706 3601.83 708.5 3612.5 713.5C3623.17 718.5 3633 723.833 3642 729.5C3651.33 735.167 3656 739 3656 741C3656 741.667 3654.5 744.333 3651.5 749C3648.83 753.667 3646.5 768.5 3644.5 793.5C3643.83 808.167 3643.5 818 3643.5 823C3643.5 840.667 3645.17 855.667 3648.5 868C3662.83 857.667 3685.67 841.833 3717 820.5C3727 813.833 3732 807.333 3732 801C3732 795 3729.67 789.833 3725 785.5C3720.33 781.167 3713.33 777 3704 773C3719.67 773 3734.83 774.833 3749.5 778.5C3764.5 781.833 3775.67 786.167 3783 791.5C3784.33 792.5 3787.5 799 3792.5 811C3797.83 823 3802.67 835.333 3807 848C3811.33 860.667 3813.5 869.167 3813.5 873.5C3813.5 875.5 3810.17 877.833 3803.5 880.5C3796.83 882.833 3782.5 887.167 3760.5 893.5C3756.83 894.5 3742.33 898.333 3717 905C3684.33 913.333 3657.17 921.167 3635.5 928.5C3613.83 935.5 3595.17 944.167 3579.5 954.5C3564.17 964.833 3556.5 976.833 3556.5 990.5C3556.5 1006.83 3566.17 1019.33 3585.5 1028C3605.17 1036.33 3631.5 1040.5 3664.5 1040.5C3685.5 1040.5 3703.17 1039.17 3717.5 1036.5C3732.17 1033.5 3748.33 1029.33 3766 1024C3773.33 1021.67 3780.33 1019.67 3787 1018C3794 1016.33 3800.33 1015.5 3806 1015.5C3818.33 1015.5 3828.33 1019 3836 1026C3843.67 1033 3847.5 1042.5 3847.5 1054.5C3847.5 1076.17 3834.33 1093 3808 1105C3781.67 1117 3745.67 1123 3700 1123ZM4129.5 731V784H4404.5V731H4129.5ZM4132.5 914.5V964.5H4394.5V914.5H4132.5ZM4191.5 839V888H4340.5V839H4191.5ZM4196 990V1039H4333V990H4196ZM4314 990V996.5C4309 1059 4302.5 1085.5 4294.5 1093.5C4289.5 1097.5 4284.5 1098 4276.5 1098C4267 1098 4245 1098 4223 1095.5C4232 1110 4238.5 1131.5 4239.5 1147.5C4264.5 1148.5 4289.5 1148 4302.5 1147C4319 1145 4331.5 1141.5 4342.5 1130C4356.5 1116 4364 1082.5 4370.5 1011.5C4371.5 1004 4372.5 990 4372.5 990H4314ZM4188 936.5C4179.5 973 4166.5 1017 4155 1047.5L4210 1060.5C4221.5 1027.5 4235.5 978.5 4246.5 936.5H4188ZM4224.5 679.5C4207.5 760.5 4167 824 4102.5 859.5C4115 869.5 4136.5 891.5 4144.5 903C4213 858.5 4260 785.5 4282.5 689L4224.5 679.5ZM4325.5 749L4278 765C4300 817.5 4338 870.5 4380.5 898.5C4389 885 4406.5 865 4419 855C4380 833 4343.5 791 4325.5 749ZM3963.5 833V878H4110V833H3963.5ZM3965 695V740.5H4108.5V695H3965ZM3963.5 901V946.5H4110V901H3963.5ZM3940.5 762.5V810H4123V762.5H3940.5ZM3989.5 970.5V1018H4060.5V1075H3989.5V1122.5H4110.5V970.5H3989.5ZM3962.5 970.5V1142.5H4011.5V970.5H3962.5ZM4685 772V813.5H4866V772H4685ZM4685 839V881H4866V839H4685ZM4623 907V959.5H4910.5V907H4623ZM4658.5 696.5V935H4716V747.5H4885V696.5H4658.5ZM4620.5 1085L4629.5 1141.5C4675 1134.5 4732.5 1126.5 4787 1117.5L4785 1065.5C4724.5 1073 4662.5 1081 4620.5 1085ZM4787.5 935L4738 943.5C4761 1041 4801 1114 4879.5 1150C4888 1134 4905.5 1109.5 4919 1097.5C4847.5 1071.5 4806.5 1011 4787.5 935ZM4861 961C4844 982 4813.5 1011.5 4790.5 1029.5L4827.5 1052C4851.5 1036.5 4882.5 1012 4910.5 988L4861 961ZM4660 922.5V1103L4717.5 1093V922.5H4660ZM4472 922.5V976H4592V922.5H4472ZM4565 922.5V931.5C4559.5 1037 4552.5 1078.5 4543 1089C4538.5 1094 4533.5 1095.5 4525.5 1095.5C4516.5 1095.5 4497.5 1095 4477.5 1093C4486.5 1108 4493 1132 4494 1149C4518 1150 4541.5 1149.5 4555 1147.5C4571 1145.5 4582.5 1140.5 4594 1127.5C4609 1110 4616 1061.5 4623 945.5C4624 938.5 4624.5 922.5 4624.5 922.5H4565ZM4467 819C4462.5 872.5 4452.5 941.5 4444 985L4499.5 991C4507 946.5 4515.5 875.5 4521 819H4467ZM4470.5 819V874H4615.5V704.5H4452.5V759.5H4561.5V819H4470.5ZM5169.5 1135C5139.17 1135 5112.33 1130.67 5089 1122C5065.67 1113.67 5047.33 1101.83 5034 1086.5C5021 1071.17 5014.5 1053.67 5014.5 1034C5014.5 1014.67 5020.5 997.67 5032.5 983C5044.5 968.333 5061.5 957 5083.5 949C5105.5 941 5131.17 937 5160.5 937C5177.83 937 5198.17 938.667 5221.5 942L5226 937.5C5210.33 916.833 5194.83 894.833 5179.5 871.5C5152.83 876.833 5130.5 879.5 5112.5 879.5C5086.5 879.5 5064.17 871.167 5045.5 854.5C5026.83 837.833 5013.5 814.167 5005.5 783.5C5013.17 795.167 5025 804 5041 810C5057 816 5078.33 819 5105 819C5116 819 5129 817.667 5144 815C5135.33 801 5126.17 784.167 5116.5 764.5C5110.17 752.5 5102.17 744.333 5092.5 740C5082.83 735.667 5068.33 733.833 5049 734.5C5067.67 725.5 5084.5 718.333 5099.5 713C5114.5 707.667 5125.5 705 5132.5 705C5138.17 705 5149.17 707.333 5165.5 712C5181.83 716.333 5191 719 5193 720C5193.67 720.333 5195 724 5197 731C5199 737.667 5201.17 744 5203.5 750C5209.83 768 5216.33 783.667 5223 797C5232.33 794 5244.5 789.833 5259.5 784.5C5266.83 781.833 5271.17 778.667 5272.5 775C5273.5 773.333 5273.83 771.833 5273.5 770.5C5273.5 769.167 5273.17 768.167 5272.5 767.5L5320 785C5325.33 787 5329.17 789.5 5331.5 792.5C5334.17 795.167 5335.5 799 5335.5 804C5335.5 812 5332 818.667 5325 824C5318 829.333 5307.17 834.833 5292.5 840.5C5280.17 845.167 5267.5 849.5 5254.5 853.5C5267.83 874.167 5280.17 891 5291.5 904C5295.5 909 5300.33 914.333 5306 920C5311.67 925.333 5315.5 929 5317.5 931C5329.17 941.667 5337.67 950.667 5343 958C5348.67 965.333 5351.5 973.667 5351.5 983C5351.5 996 5347.5 1006.67 5339.5 1015C5331.5 1023.33 5321.33 1027.5 5309 1027.5C5300.67 1027.5 5293.5 1025.5 5287.5 1021.5C5281.83 1017.17 5275 1010.5 5267 1001.5C5256.67 989.5 5247.5 980.833 5239.5 975.5C5225.17 966.167 5212 959 5200 954C5188.33 949 5174.33 946.5 5158 946.5C5135.67 946.5 5117.5 952 5103.5 963C5089.83 973.667 5083 987.833 5083 1005.5C5083 1022.5 5090.67 1036.33 5106 1047C5121.67 1057.67 5141.17 1063 5164.5 1063C5175.83 1063 5185.5 1062 5193.5 1060C5201.83 1058 5210.83 1055 5220.5 1051C5227.17 1048.33 5232.67 1046.5 5237 1045.5C5241.67 1044.17 5246.17 1043.5 5250.5 1043.5C5262.17 1043.5 5271.5 1046.67 5278.5 1053C5285.5 1059 5289 1067 5289 1077C5289 1095.67 5278.33 1110 5257 1120C5236 1130 5206.83 1135 5169.5 1135ZM-1438 1823.5C-1444.33 1823.5 -1448.67 1822.33 -1451 1820C-1453 1818 -1454 1814.83 -1454 1810.5V1804C-1454 1798.33 -1455.67 1792.67 -1459 1787L-1484.5 1744C-1490.17 1755.67 -1494.83 1763.83 -1498.5 1768.5C-1501.83 1773.17 -1506.83 1775.5 -1513.5 1775.5C-1523.83 1775.5 -1532.67 1770.83 -1540 1761.5C-1547.33 1751.83 -1551 1740.33 -1551 1727C-1551 1717 -1548.83 1708.83 -1544.5 1702.5C-1540.17 1695.83 -1533.17 1688.17 -1523.5 1679.5L-1512.5 1669C-1495.17 1651.67 -1470.17 1628.33 -1437.5 1599L-1438.5 1550L-1454.5 1563.5C-1468.5 1574.83 -1476.5 1580.5 -1478.5 1580.5C-1483.83 1580.5 -1493.83 1577 -1508.5 1570C-1523.17 1562.67 -1531.83 1556.83 -1534.5 1552.5C-1539.83 1542.83 -1543.5 1532.17 -1545.5 1520.5C-1547.5 1508.5 -1548.17 1496.83 -1547.5 1485.5C-1543.83 1495.5 -1538 1503 -1530 1508C-1522 1512.67 -1510.33 1515 -1495 1515C-1478 1514.33 -1459.67 1511.17 -1440 1505.5L-1441 1458.5C-1441 1438.83 -1445.5 1425.33 -1454.5 1418C-1460.17 1413.33 -1467.17 1411 -1475.5 1411C-1480.83 1411 -1486.5 1412 -1492.5 1414C-1480.83 1405.33 -1468 1398.17 -1454 1392.5C-1439.67 1386.83 -1426.5 1384 -1414.5 1384C-1409.83 1384 -1399.5 1388.83 -1383.5 1398.5C-1367.17 1407.83 -1359 1414 -1359 1417C-1359 1417.67 -1360.17 1420.67 -1362.5 1426C-1364.83 1431.33 -1367.17 1441.5 -1369.5 1456.5L-1370.5 1465C-1365.17 1469.67 -1359.17 1476.83 -1352.5 1486.5C-1345.5 1496.17 -1342 1502.33 -1342 1505C-1342 1506.33 -1353.67 1519.67 -1377 1545V1552.5C-1350 1529.17 -1325.17 1512.5 -1302.5 1502.5C-1279.83 1492.17 -1260.33 1487 -1244 1487C-1223.33 1487 -1207.33 1491.67 -1196 1501C-1184.33 1510.33 -1178.5 1522.5 -1178.5 1537.5C-1178.5 1548.5 -1180.33 1568 -1184 1596C-1189.33 1634 -1192 1664.67 -1192 1688C-1192 1701.33 -1190.17 1711.5 -1186.5 1718.5C-1182.83 1725.5 -1177.67 1729 -1171 1729C-1159 1729 -1146.67 1718.33 -1134 1697C-1121.33 1675.67 -1109.33 1647.17 -1098 1611.5C-1103.67 1673.17 -1115 1720 -1132 1752C-1148.67 1784 -1172.5 1800 -1203.5 1800C-1226.17 1800 -1244.33 1792 -1258 1776C-1271.33 1759.67 -1278 1737.67 -1278 1710C-1278 1674.33 -1275 1631.83 -1269 1582.5L-1266 1553.5C-1265.33 1544.17 -1265 1538 -1265 1535C-1265 1526 -1266.33 1519.17 -1269 1514.5C-1271.33 1509.83 -1275.5 1507.5 -1281.5 1507.5C-1293.5 1507.5 -1307.83 1513.5 -1324.5 1525.5C-1340.83 1537.5 -1358.5 1555.5 -1377.5 1579.5C-1377.17 1601.5 -1374.17 1643 -1368.5 1704C-1365.83 1728 -1364.5 1743.33 -1364.5 1750C-1364.5 1773 -1371.17 1791 -1384.5 1804C-1397.5 1817 -1415.33 1823.5 -1438 1823.5ZM-1448.5 1746.5C-1443.83 1746.5 -1441 1744.17 -1440 1739.5C-1438.67 1734.83 -1437.83 1728 -1437.5 1719V1656C-1448.17 1672.67 -1459.5 1692.67 -1471.5 1716C-1473.83 1719.67 -1476 1723.83 -1478 1728.5C-1479.67 1732.83 -1481 1736 -1482 1738L-1472.5 1742C-1459.83 1745 -1451.83 1746.5 -1448.5 1746.5ZM-981.5 1810.5C-994.167 1810.5 -1005 1806.33 -1014 1798C-1022.67 1790 -1027 1779.83 -1027 1767.5C-1027 1761.17 -1026 1755 -1024 1749C-1021.67 1742.67 -1017.17 1732.83 -1010.5 1719.5L-986.5 1671.5C-982.833 1664.17 -977.167 1652.67 -969.5 1637C-961.5 1621.33 -955 1607.67 -950 1596C-947.333 1590.67 -942.667 1579.5 -936 1562.5C-939 1562.5 -943.167 1562.17 -948.5 1561.5C-970.167 1558.83 -988.5 1549.17 -1003.5 1532.5C-1018.17 1515.83 -1028.67 1491.5 -1035 1459.5C-1029 1474.17 -1018.17 1485.33 -1002.5 1493C-986.5 1500.67 -966 1504.5 -941 1504.5C-935.667 1504.5 -927.667 1504.17 -917 1503.5C-914 1493.5 -910.5 1480.67 -906.5 1465L-903.5 1453.5C-902.167 1448.17 -901.5 1443 -901.5 1438C-901.5 1428 -904.833 1420.17 -911.5 1414.5C-918.5 1408.83 -930.5 1406.33 -947.5 1407C-929.5 1399.33 -913.5 1393.67 -899.5 1390C-885.167 1386 -874.333 1384.17 -867 1384.5C-862.333 1384.5 -854.833 1387.5 -844.5 1393.5C-834.167 1399.17 -824.667 1405.5 -816 1412.5C-807 1419.17 -802.5 1423.5 -802.5 1425.5C-802.5 1427.17 -806 1434.33 -813 1447C-821.667 1463.33 -828.167 1476.67 -832.5 1487C-815.167 1482.33 -802.5 1478.33 -794.5 1475C-785.833 1471.67 -780.167 1468 -777.5 1464C-775.833 1461.33 -775.333 1458.83 -776 1456.5L-728.5 1477C-721.167 1480 -717.5 1484.67 -717.5 1491C-717.5 1498.33 -721 1504.83 -728 1510.5C-734.667 1516.17 -744.833 1521.67 -758.5 1527C-793.833 1539.67 -828 1549.17 -861 1555.5C-886.667 1623.17 -909.167 1691.67 -928.5 1761C-932.833 1777 -939.5 1789.17 -948.5 1797.5C-957.5 1806.17 -968.5 1810.5 -981.5 1810.5ZM-782.5 1624.5C-771.5 1615.17 -761.5 1607.5 -752.5 1601.5C-743.167 1595.17 -732.5 1589.33 -720.5 1584C-718.167 1582.67 -717 1581.5 -717 1580.5C-717 1579.5 -719 1579 -723 1579C-741 1578.67 -762 1580.17 -786 1583.5C-809.667 1586.83 -832.833 1592.17 -855.5 1599.5C-822.167 1576.5 -791.667 1559.67 -764 1549C-736 1538 -711.333 1532.5 -690 1532.5C-668.667 1532.5 -651.167 1537.17 -637.5 1546.5C-623.833 1555.83 -617 1568 -617 1583C-617 1593.33 -620 1601.5 -626 1607.5C-631.667 1613.17 -639.5 1616 -649.5 1616C-651.5 1616 -656 1615.33 -663 1614C-670 1612.33 -678.5 1611.67 -688.5 1612C-697.5 1612.67 -713 1614.33 -735 1617C-756.667 1619.33 -772.5 1621.83 -782.5 1624.5ZM-742.5 1808.5C-768.167 1808.5 -790.333 1805.17 -809 1798.5C-827.667 1791.83 -842 1782.67 -852 1771C-861.667 1759 -866.5 1745.5 -866.5 1730.5C-866.5 1698.83 -844.333 1667.67 -800 1637C-808.667 1649 -815.167 1659.67 -819.5 1669C-823.833 1678.33 -826 1687 -826 1695C-826 1707.67 -820.167 1717.17 -808.5 1723.5C-796.5 1729.83 -779.167 1733 -756.5 1733C-739.833 1733 -725.833 1731.5 -714.5 1728.5C-702.833 1725.5 -690.333 1721.33 -677 1716C-668.333 1712.67 -661.667 1710.33 -657 1709C-652.333 1707.33 -647.5 1706.5 -642.5 1706.5C-633.167 1706.5 -625.5 1709.83 -619.5 1716.5C-613.5 1723.17 -610.5 1731.83 -610.5 1742.5C-610.5 1763.5 -622.167 1779.67 -645.5 1791C-668.5 1802.67 -700.833 1808.5 -742.5 1808.5ZM-555 1401.5V1457H-386.5V1401.5H-555ZM-392 1447.5V1502.5H-88V1447.5H-392ZM-551 1541V1596.5H-392V1541H-551ZM-564.5 1715.5L-549 1772C-500 1757 -437.5 1737 -379 1717L-387 1666.5C-451.5 1685 -520 1704.5 -564.5 1715.5ZM-273.5 1363V1765C-273.5 1773 -276.5 1775.5 -284 1775.5C-292 1775.5 -315.5 1776 -340 1775C-331.5 1790.5 -321.5 1816.5 -319.5 1832.5C-282 1832.5 -256.5 1830.5 -239 1820.5C-221.5 1810.5 -215.5 1794.5 -215.5 1765V1363H-273.5ZM-425 1727L-394.5 1780.5C-359.5 1758.5 -317 1730 -279.5 1703L-297.5 1653.5C-344 1681.5 -393 1711 -425 1727ZM-387.5 1545.5C-368.5 1573.5 -348.5 1611.5 -341 1635.5L-292 1612.5C-300 1588 -322 1551.5 -341 1525L-387.5 1545.5ZM-142 1519.5C-156 1548 -180.5 1586 -199.5 1609.5L-157 1633.5C-137 1611.5 -112 1578 -89.5 1547L-142 1519.5ZM-197 1396.5C-174 1412.5 -145.5 1436 -132 1452.5L-97.5 1418C-111.5 1402 -141 1379.5 -164.5 1365.5L-197 1396.5ZM-499 1424.5V1724.5L-441 1715.5V1424.5H-499ZM-217.5 1508.5L-267 1517.5C-245 1645 -209.5 1724.5 -116.5 1795C-109.5 1779 -93.5 1760 -79.5 1749C-164 1691.5 -198 1623.5 -217.5 1508.5ZM106 1584V1631H234.5V1584H106ZM106 1668V1715H235V1668H106ZM9 1752.5V1807.5H346.5V1752.5H9ZM-28.5 1494V1833H29V1549H319V1833H380V1494H-28.5ZM80.5 1530.5V1777H134V1530.5H80.5ZM211 1530.5V1776.5H265V1530.5H211ZM137 1418C135 1449.5 127 1491.5 120 1520.5L175 1535C185 1509 196 1470 208 1433L137 1418ZM-49.5 1392V1449H402.5V1392H-49.5ZM446.5 1389.5V1445H622.5V1389.5H446.5ZM451 1532.5V1587.5H617V1532.5H451ZM434.5 1706L449.5 1763C501.5 1747.5 569.5 1728 632.5 1709L624.5 1656.5C555.5 1675.5 483 1695 434.5 1706ZM697.5 1507.5H829V1538.5H697.5V1507.5ZM697.5 1584.5H829V1615H697.5V1584.5ZM697.5 1431.5H829V1462H697.5V1431.5ZM642 1382.5V1664.5H887.5V1382.5H642ZM768 1642.5V1763C768 1813.5 778 1830.5 824.5 1830.5C833 1830.5 853.5 1830.5 862.5 1830.5C899 1830.5 913 1811.5 918 1743C903 1739.5 879 1730 867.5 1721C866.5 1771 864.5 1779 856 1779C851.5 1779 838.5 1779 835 1779C827 1779 825.5 1777.5 825.5 1762.5V1642.5H768ZM679.5 1657C673 1720.5 660 1763 565 1787C577 1798.5 592 1821.5 598 1836.5C709 1803 730.5 1742.5 738 1657H679.5ZM507 1411.5V1714L565 1705.5V1411.5H507ZM1095.5 1532L1104.5 1589.5L1408.5 1548.5L1400 1491.5L1095.5 1532ZM1284 1395C1309.5 1420.5 1340 1456 1352.5 1479L1400.5 1448C1386.5 1424.5 1355 1391 1329 1367L1284 1395ZM1068 1367.5C1037 1443 984.5 1517.5 930.5 1564C941 1578.5 958 1610.5 964 1625C1026.5 1567.5 1087.5 1475 1125 1386.5L1068 1367.5ZM1016 1511V1832H1078V1451L1077.5 1450L1016 1511ZM1189 1371C1198 1643.5 1227.5 1821 1346 1832C1374 1833.5 1401 1810.5 1414 1713.5C1403 1708 1376 1692 1364.5 1679.5C1361 1734.5 1354.5 1760.5 1343 1759.5C1282.5 1751 1253.5 1585 1250 1371H1189ZM1632 1804C1665.67 1793.33 1695.17 1777.17 1720.5 1755.5C1745.83 1733.5 1765.33 1707.5 1779 1677.5C1792.67 1647.17 1799.5 1614.67 1799.5 1580C1799.5 1553.67 1794.17 1530.33 1783.5 1510C1772.83 1489.67 1757.83 1473.83 1738.5 1462.5C1719.5 1450.83 1697.67 1445 1673 1445C1665.33 1445 1658.33 1445.67 1652 1447V1452C1660 1453 1667.33 1454.33 1674 1456C1680.67 1457.33 1685.17 1458.5 1687.5 1459.5C1690.83 1460.5 1699.33 1466.67 1713 1478C1727 1489.33 1734 1496 1734 1498C1733.67 1499.33 1732.33 1502.5 1730 1507.5C1727.67 1512.5 1726.17 1516.83 1725.5 1520.5C1719.5 1555.5 1707.5 1592.33 1689.5 1631C1671.5 1669.67 1650.17 1702.17 1625.5 1728.5C1601.17 1754.5 1576.5 1767.5 1551.5 1767.5C1535.83 1767.5 1520.67 1761.33 1506 1749C1491.67 1736.33 1480 1719.5 1471 1698.5C1462 1677.5 1457.5 1654.67 1457.5 1630C1457.5 1595.33 1467.33 1563.17 1487 1533.5C1506.67 1503.83 1533.33 1480.33 1567 1463C1600.67 1445.33 1637.33 1436.5 1677 1436.5C1719 1436.5 1756.33 1443.67 1789 1458C1822 1472.33 1847.67 1492.33 1866 1518C1884.33 1543.67 1893.5 1572.83 1893.5 1605.5C1893.5 1639.83 1883 1670.83 1862 1698.5C1841 1726.17 1810.83 1749 1771.5 1767C1732.5 1785 1686 1797.33 1632 1804ZM1561 1682.5C1572.67 1682.5 1584.67 1672.33 1597 1652C1609.67 1631.33 1620.83 1606.33 1630.5 1577C1640.17 1547.33 1646.5 1520.67 1649.5 1497C1650.17 1491.67 1650.5 1488.17 1650.5 1486.5C1650.5 1477.17 1648.33 1470 1644 1465C1639.67 1459.67 1633.17 1456.17 1624.5 1454.5C1605.5 1461.83 1588.5 1473.17 1573.5 1488.5C1558.83 1503.83 1547.33 1522 1539 1543C1530.67 1563.67 1526.5 1585.67 1526.5 1609C1526.5 1623 1528.17 1635.67 1531.5 1647C1535.17 1658 1539.67 1666.67 1545 1673C1550.67 1679.33 1556 1682.5 1561 1682.5ZM2013 1671.5V1834.5H2071V1709H2285.5V1834H2346V1671.5H2013ZM2043.5 1727.5V1762.5H2307V1727.5H2043.5ZM2043.5 1782V1820H2307V1782H2043.5ZM2143.5 1362V1641H2204V1362H2143.5ZM2001.5 1393.5V1428.5H2284V1507H1996V1542H2343.5V1393.5H2001.5ZM1950.5 1446.5V1488H2401.5V1446.5H1950.5ZM1985 1559.5V1596H2364.5V1559.5H1985ZM1949.5 1614V1655.5H2401V1614H1949.5ZM2536.5 1365.5C2513.5 1436.5 2474.5 1507.5 2432.5 1553.5C2443 1568 2459.5 1601.5 2465 1615.5C2516 1558 2563.5 1467.5 2593 1382.5L2536.5 1365.5ZM2496 1503.5V1832.5H2553V1447L2552.5 1446.5L2496 1503.5ZM2709 1366V1829.5H2767.5V1366H2709ZM2582 1452.5V1509.5H2906V1452.5H2582ZM2643 1695V1748.5H2834.5V1695H2643ZM2788.5 1484.5L2746 1497C2773.5 1595.5 2820 1698 2875 1758C2885.5 1742 2905.5 1721.5 2919.5 1711C2865.5 1660 2815 1569.5 2788.5 1484.5ZM2690.5 1480C2664 1569 2612.5 1663 2555.5 1714C2568.5 1724 2588.5 1745 2598 1759.5C2657.5 1698.5 2705 1595.5 2733.5 1492L2690.5 1480ZM3069 1807C3049.33 1807 3032 1800.67 3017 1788C3002 1775.67 2990.33 1758.17 2982 1735.5C2974 1712.83 2970 1686.83 2970 1657.5C2970 1636.83 2971.33 1615.83 2974 1594.5C2976.67 1573.17 2980.33 1549.67 2985 1524C2987.33 1511 2989.33 1498.67 2991 1487C2992.67 1475 2993.5 1465.5 2993.5 1458.5C2993.5 1428.5 2984 1407.5 2965 1395.5C2978.33 1396.5 2992.33 1399.33 3007 1404C3021.67 1408.33 3034.17 1413.83 3044.5 1420.5C3051.5 1425.17 3061.17 1435.67 3073.5 1452C3085.83 1468.33 3092 1478.5 3092 1482.5C3092 1483.83 3089 1488.33 3083 1496C3065.67 1519 3050.67 1542.67 3038 1567C3025.67 1591.33 3019.5 1617.83 3019.5 1646.5C3019.5 1663.5 3021.67 1676.83 3026 1686.5C3030.33 1696.17 3035.83 1701 3042.5 1701C3046.5 1701 3050 1699.5 3053 1696.5C3056.33 1693.5 3060.83 1688 3066.5 1680L3124.5 1590L3090.5 1760C3089.83 1765.33 3089.5 1769.17 3089.5 1771.5C3089.5 1776.83 3090 1782 3091 1787C3092.33 1791.67 3093 1795 3093 1797C3093 1799.67 3090.83 1802 3086.5 1804C3082.5 1806 3076.67 1807 3069 1807ZM3208 1566.5C3216.33 1554.83 3224.33 1545.67 3232 1539C3239.67 1532 3249 1524.33 3260 1516C3263.33 1514 3266.67 1511.67 3270 1509C3273 1506.33 3274.5 1504.5 3274.5 1503.5C3274.5 1501.5 3272.33 1500.5 3268 1500.5C3248.67 1500.83 3228.17 1503.5 3206.5 1508.5C3184.83 1513.17 3163.67 1519.33 3143 1527C3162.33 1504.67 3186.67 1486.33 3216 1472C3245.33 1457.67 3274.17 1450.5 3302.5 1450.5C3326.5 1450.5 3346.33 1455.5 3362 1465.5C3377.67 1475.17 3385.5 1487.83 3385.5 1503.5C3385.5 1512.5 3382.83 1519.83 3377.5 1525.5C3372.17 1530.83 3365.33 1533.5 3357 1533.5C3354.67 1533.5 3350.5 1533.33 3344.5 1533C3338.5 1532.33 3332.83 1532 3327.5 1532C3306.5 1532 3287.33 1534.33 3270 1539C3252.67 1543.67 3232 1552.83 3208 1566.5ZM3276 1796.5C3247.33 1796.5 3222.5 1792.33 3201.5 1784C3180.83 1775.33 3165 1763.67 3154 1749C3143.33 1734 3138 1717.33 3138 1699C3138 1682 3142.83 1664.67 3152.5 1647C3162.17 1629.33 3176.67 1612.17 3196 1595.5C3181.33 1621.17 3174 1642.67 3174 1660C3174 1677.33 3181.17 1690.5 3195.5 1699.5C3210.17 1708.17 3230.67 1712.5 3257 1712.5C3273.33 1712.5 3287 1711 3298 1708C3309 1705 3321 1700.67 3334 1695C3339 1692.67 3343.83 1690.67 3348.5 1689C3353.5 1687.33 3358.17 1686.5 3362.5 1686.5C3373.5 1686.5 3382.33 1690.17 3389 1697.5C3396 1704.83 3399.5 1714.33 3399.5 1726C3399.5 1748 3388.33 1765.33 3366 1778C3343.67 1790.33 3313.67 1796.5 3276 1796.5ZM3709.5 1750.5C3759.5 1775 3814 1808.5 3845 1831L3900 1791C3866 1768.5 3805 1736 3752.5 1711.5L3709.5 1750.5ZM3441.5 1661V1717.5H3910V1661H3441.5ZM3520.5 1539V1594.5H3828V1539H3520.5ZM3595 1362V1686H3651V1362H3595ZM3699 1361.5V1686H3756V1361.5H3699ZM3491 1421V1681.5H3549V1476.5H3804V1681.5H3864.5V1421H3491ZM3589 1712C3558 1738.5 3495 1772 3442 1789C3456.5 1800.5 3477.5 1820 3489 1832.5C3540.5 1813.5 3604.5 1779.5 3644 1748.5L3589 1712ZM3970.5 1381.5V1433.5H4199V1381.5H3970.5ZM3953.5 1486.5V1539H4210.5V1486.5H3953.5ZM3949 1761.5V1817H4401.5V1761.5H3949ZM3999.5 1667V1721H4351.5V1667H3999.5ZM4107.5 1401.5V1635.5H4163.5V1401.5H4107.5ZM4144.5 1627.5V1802.5H4206.5V1627.5H4144.5ZM4231.5 1392.5V1562H4286V1392.5H4231.5ZM4323 1369.5V1582.5C4323 1589 4320.5 1591 4313.5 1591C4306 1591.5 4281.5 1591.5 4258.5 1590.5C4266.5 1605.5 4274.5 1628 4277 1643.5C4312 1643.5 4337.5 1642.5 4356 1634C4375 1625.5 4380 1611.5 4380 1583.5V1369.5H4323ZM4010.5 1402.5V1490C4010.5 1531 4004 1576 3943 1607.5C3954 1615.5 3974.5 1638 3982 1649C4051.5 1611.5 4065.5 1546.5 4065.5 1491.5V1402.5H4010.5ZM4478 1805C4512.33 1788.67 4546.17 1767 4579.5 1740C4613.17 1712.67 4644 1682 4672 1648C4694.33 1621 4713.83 1593.67 4730.5 1566C4747.17 1538 4759.67 1511.83 4768 1487.5C4768.67 1484.17 4769 1482 4769 1481C4769 1477.33 4767.33 1475.5 4764 1475.5C4762 1475.5 4759.67 1476 4757 1477C4733 1484 4685.67 1503 4615 1534C4608.67 1536.67 4600.5 1540.5 4590.5 1545.5C4580.5 1550.5 4574.67 1553 4573 1553C4568.33 1553 4558.33 1547.5 4543 1536.5C4527.67 1525.5 4518.67 1517.67 4516 1513C4510 1503.33 4505.33 1491 4502 1476C4498.67 1461 4497.33 1447.83 4498 1436.5C4501.67 1446.83 4508 1454.67 4517 1460C4526.33 1465.33 4539.67 1468.17 4557 1468.5C4580.67 1468.83 4611.33 1468.17 4649 1466.5C4687 1464.5 4719.17 1460.83 4745.5 1455.5C4761.5 1451.83 4772.5 1446.67 4778.5 1440C4784.83 1433 4788.17 1429.5 4788.5 1429.5C4795.17 1429.5 4805.5 1435 4819.5 1446C4833.5 1456.67 4846.5 1468.33 4858.5 1481C4870.5 1493.67 4876.5 1502 4876.5 1506C4876.5 1506.33 4874.17 1509 4869.5 1514C4864.83 1519 4860.33 1525.33 4856 1533C4835 1568.33 4814.33 1599.17 4794 1625.5C4774 1651.83 4752.17 1675.17 4728.5 1695.5C4697.17 1721.83 4661.33 1744 4621 1762C4580.67 1779.67 4533 1794 4478 1805ZM5200 1807C5168 1807 5139.67 1802.33 5115 1793C5090.33 1783.67 5071 1770.5 5057 1753.5C5043.33 1736.5 5036.5 1717 5036.5 1695C5036.5 1676.33 5043.17 1657.67 5056.5 1639C5069.83 1620 5088.83 1600.17 5113.5 1579.5C5086.83 1566.17 5072 1548.33 5069 1526L5060.5 1453.5C5057.17 1424.17 5040.83 1409.83 5011.5 1410.5C5024.17 1404.17 5037.33 1399.17 5051 1395.5C5065 1391.83 5077.83 1390 5089.5 1390C5094.17 1390 5101.83 1392.5 5112.5 1397.5C5123.17 1402.5 5133 1407.83 5142 1413.5C5151.33 1419.17 5156 1423 5156 1425C5156 1425.67 5154.5 1428.33 5151.5 1433C5148.83 1437.67 5146.5 1452.5 5144.5 1477.5C5143.83 1492.17 5143.5 1502 5143.5 1507C5143.5 1524.67 5145.17 1539.67 5148.5 1552C5162.83 1541.67 5185.67 1525.83 5217 1504.5C5227 1497.83 5232 1491.33 5232 1485C5232 1479 5229.67 1473.83 5225 1469.5C5220.33 1465.17 5213.33 1461 5204 1457C5219.67 1457 5234.83 1458.83 5249.5 1462.5C5264.5 1465.83 5275.67 1470.17 5283 1475.5C5284.33 1476.5 5287.5 1483 5292.5 1495C5297.83 1507 5302.67 1519.33 5307 1532C5311.33 1544.67 5313.5 1553.17 5313.5 1557.5C5313.5 1559.5 5310.17 1561.83 5303.5 1564.5C5296.83 1566.83 5282.5 1571.17 5260.5 1577.5C5256.83 1578.5 5242.33 1582.33 5217 1589C5184.33 1597.33 5157.17 1605.17 5135.5 1612.5C5113.83 1619.5 5095.17 1628.17 5079.5 1638.5C5064.17 1648.83 5056.5 1660.83 5056.5 1674.5C5056.5 1690.83 5066.17 1703.33 5085.5 1712C5105.17 1720.33 5131.5 1724.5 5164.5 1724.5C5185.5 1724.5 5203.17 1723.17 5217.5 1720.5C5232.17 1717.5 5248.33 1713.33 5266 1708C5273.33 1705.67 5280.33 1703.67 5287 1702C5294 1700.33 5300.33 1699.5 5306 1699.5C5318.33 1699.5 5328.33 1703 5336 1710C5343.67 1717 5347.5 1726.5 5347.5 1738.5C5347.5 1760.17 5334.33 1777 5308 1789C5281.67 1801 5245.67 1807 5200 1807Z" fill="url(#paint0_linear_451_177)"/>
</g>
<defs>
<linearGradient id="paint0_linear_451_177" x1="2030" y1="-252" x2="2030" y2="1239.5" gradientUnits="userSpaceOnUse">
<stop stop-color="#551210"/>
<stop offset="0.854167" stop-color="#030E27"/>
</linearGradient>
</defs>
</svg>
