<svg width="214" height="202" viewBox="0 0 214 202" fill="none" xmlns="http://www.w3.org/2000/svg">
<path d="M75.0915 99.4823C75.9134 99.5984 76.6734 99.0288 76.789 98.2101L78.6724 84.8691C78.788 84.0504 78.2154 83.2927 77.3935 83.1766C76.5715 83.0606 75.8116 83.6302 75.696 84.4489L74.0218 96.3076L62.1162 94.6268C61.2943 94.5107 60.5343 95.0803 60.4187 95.899C60.3032 96.7177 60.8758 97.4754 61.6977 97.5915L75.0915 99.4823ZM0.799706 1.89961L74.1005 98.8996L76.5011 97.1004L3.20029 0.100392L0.799706 1.89961Z" fill="url(#paint0_linear_434_172)"/>
<path d="M139.692 99.4823C138.871 99.5984 138.111 99.0288 137.995 98.2101L136.112 84.8691C135.996 84.0504 136.569 83.2927 137.39 83.1766C138.212 83.0606 138.972 83.6302 139.088 84.4489L140.762 96.3076L152.668 94.6268C153.49 94.5107 154.25 95.0803 154.365 95.899C154.481 96.7177 153.908 97.4754 153.086 97.5915L139.692 99.4823ZM213.984 1.89961L140.683 98.8996L138.283 97.1004L211.584 0.100392L213.984 1.89961Z" fill="url(#paint1_linear_434_172)"/>
<path d="M129.415 141.315C129.037 140.578 128.133 140.288 127.395 140.667L115.368 146.835C114.63 147.213 114.337 148.117 114.715 148.853C115.093 149.589 115.997 149.879 116.735 149.501L127.426 144.018L132.895 154.683C133.272 155.42 134.177 155.71 134.915 155.331C135.653 154.953 135.945 154.049 135.567 153.313L129.415 141.315ZM110.428 201.458L129.507 142.458L126.65 141.542L107.572 200.542L110.428 201.458Z" fill="url(#paint2_linear_434_172)"/>
<defs>
<linearGradient id="paint0_linear_434_172" x1="38.6504" y1="49.5" x2="37.8526" y2="50.1029" gradientUnits="userSpaceOnUse">
<stop stop-color="#C81E19"/>
<stop offset="1" stop-color="#CCAB5A" stop-opacity="0"/>
</linearGradient>
<linearGradient id="paint1_linear_434_172" x1="176.134" y1="49.5" x2="176.931" y2="50.1029" gradientUnits="userSpaceOnUse">
<stop stop-color="#C81E19"/>
<stop offset="1" stop-color="#CCAB5A" stop-opacity="0"/>
</linearGradient>
<linearGradient id="paint2_linear_434_172" x1="118.539" y1="171.5" x2="119.491" y2="171.808" gradientUnits="userSpaceOnUse">
<stop stop-color="#C81E19"/>
<stop offset="1" stop-color="#CCAB5A" stop-opacity="0"/>
</linearGradient>
</defs>
</svg>
